<?xml version="1.0" encoding="UTF-8"?>
<svg width="1140px" height="230px" viewBox="0 0 1140 230" version="1.1" xmlns="http://www.w3.org/2000/svg" xmlns:xlink="http://www.w3.org/1999/xlink">
    <title>1140 wide 2</title>
    <defs>
        <linearGradient x1="50%" y1="100%" x2="50%" y2="3.061617e-15%" id="linearGradient-1">
            <stop stop-color="#B3D0CB" offset="0%"></stop>
            <stop stop-color="#7CA39B" offset="100%"></stop>
        </linearGradient>
        <rect id="path-2" x="0" y="0" width="1140" height="230"></rect>
    </defs>
    <g id="1140-wide-2" stroke="none" stroke-width="1" fill="none" fill-rule="evenodd">
        <g id="Group-5-Copy-2">
            <mask id="mask-3" fill="white">
                <use xlink:href="#path-2"></use>
            </mask>
            <use id="Mask" fill="url(#linearGradient-1)" xlink:href="#path-2"></use>
            <g opacity="0.505813953" style="mix-blend-mode: soft-light;" mask="url(#mask-3)">
                <g transform="translate(670.510600, 25.000000)">
                    <path d="M87.3222593,54.2749166 C86.7801508,52.6061504 85.8529378,51.1619118 84.5413609,49.9429418 C83.6334032,49.2412004 82.7254454,48.5394591 81.8182282,47.8377177 C79.719409,46.6202297 77.4561799,46.0074102 75.0278002,46 C73.8354576,46.1600593 72.643115,46.3208596 71.451513,46.4801778 C69.171991,47.120415 67.1931466,48.2741756 65.5142394,49.9429418 L64.4381687,51.0196369 C63.1265919,52.2386069 62.1986383,53.6828455 61.6557892,55.3523527 C60.8144841,56.9559096 60.4271579,58.6854391 60.4975135,60.538718 C60.4271579,62.391997 60.8144841,64.1207855 61.6557892,65.7250834 C62.1986383,67.3938496 63.1265919,68.8380882 64.4381687,70.0570582 C65.3461265,70.7587996 66.2533437,71.4605409 67.1613014,72.1622823 C69.25938,73.3797703 71.5233498,73.9925898 73.9517295,74 C75.1433315,73.8399407 76.3356741,73.6791404 77.5280167,73.5190811 C79.8067981,72.879585 81.7856425,71.7258244 83.4645497,70.0570582 C83.8237336,69.6984068 84.182177,69.3397555 84.5413609,68.9803631 C85.8529378,67.7613931 86.7801508,66.3164135 87.3222593,64.6476473 C88.1650456,63.0433494 88.5516312,61.3145609 88.4812756,59.461282 C88.5516312,57.608003 88.1650456,55.8792145 87.3222593,54.2749166" id="Fill-31" fill="#155E35"></path>
                    <path d="M330.322259,54.2749166 C329.780151,52.6061504 328.852938,51.1619118 327.541361,49.9429418 C326.633403,49.2412004 325.725445,48.5394591 324.818228,47.8377177 C322.719409,46.6202297 320.45618,46.0074102 318.0278,46 C316.835458,46.1600593 315.643115,46.3208596 314.451513,46.4801778 C312.171991,47.120415 310.193147,48.2741756 308.514239,49.9429418 L307.438169,51.0196369 C306.126592,52.2386069 305.198638,53.6828455 304.655789,55.3523527 C303.814484,56.9559096 303.427158,58.6854391 303.497514,60.538718 C303.427158,62.391997 303.814484,64.1207855 304.655789,65.7250834 C305.198638,67.3938496 306.126592,68.8380882 307.438169,70.0570582 C308.346126,70.7587996 309.253344,71.4605409 310.161301,72.1622823 C312.25938,73.3797703 314.52335,73.9925898 316.951729,74 C318.143331,73.8399407 319.335674,73.6791404 320.528017,73.5190811 C322.806798,72.879585 324.785642,71.7258244 326.46455,70.0570582 C326.823734,69.6984068 327.182177,69.3397555 327.541361,68.9803631 C328.852938,67.7613931 329.780151,66.3164135 330.322259,64.6476473 C331.165046,63.0433494 331.551631,61.3145609 331.481276,59.461282 C331.551631,57.608003 331.165046,55.8792145 330.322259,54.2749166" id="Fill-31-Copy" fill="#155E35"></path>
                    <path d="M315.67695,0 C348.158169,0 374.4894,26.1976624 374.4894,58.5141166 C374.4894,74.0841843 368.377099,88.2338892 358.409583,98.7175938 C363.134076,108.872392 366.771246,119.750097 369.234046,131.271604 C387.296684,227.965966 320.665816,305.822697 219.307283,327.246329 C117.948679,348.669632 20.7384834,295.663136 2.18219917,208.852842 C-3.93643229,178.968296 6.75585011,138.018257 30.5599943,100.98631 C19.2568945,90.3241121 12.2047046,75.2385003 12.2047046,58.5141166 C12.2047046,26.1976624 38.5359357,0 71.0171552,0 C90.4451534,0 107.672933,9.37246859 118.381974,23.8207906 C129.044289,19.0922006 140.305918,15.3729196 152.108975,12.8781753 C196.757936,5.52035393 237.043752,8.86051231 270.609683,20.9186482 C281.394048,8.13123985 297.581081,0 315.67695,0 Z M158.254625,31.2056349 C147.390257,33.5019738 137.042982,36.9678149 127.266572,41.3853351 C128.934106,46.8029049 129.829606,52.5544636 129.829606,58.5141166 C129.829606,90.8305709 103.498375,117.028233 71.0171552,117.028233 C63.0109942,117.028233 55.3784775,115.436587 48.4218255,112.553982 C28.7107283,144.550579 19.9945624,179.405344 25.2481243,205.064718 C41.7103741,282.078671 127.950002,329.103638 217.869756,310.098069 C307.789448,291.092207 366.900574,222.021555 350.876245,136.238933 C348.943776,127.198423 346.196282,118.604721 342.689091,110.504307 C334.597863,114.674116 325.413725,117.028233 315.67695,117.028233 C283.19573,117.028233 256.864499,90.8305709 256.864499,58.5141166 C256.864499,51.0835973 258.256572,43.9765648 260.795398,37.4370955 C231.544581,27.4788461 196.725215,24.8659793 158.254625,31.2056349 Z" id="Combined-Shape" fill="#FFFFFF"></path>
                    <path d="M330.322259,54.2749166 C329.780151,52.6061504 328.852938,51.1619118 327.541361,49.9429418 C326.633403,49.2412004 325.725445,48.5394591 324.818228,47.8377177 C322.719409,46.6202297 320.45618,46.0074102 318.0278,46 C316.835458,46.1600593 315.643115,46.3208596 314.451513,46.4801778 C312.171991,47.120415 310.193147,48.2741756 308.514239,49.9429418 L307.438169,51.0196369 C306.126592,52.2386069 305.198638,53.6828455 304.655789,55.3523527 C303.814484,56.9559096 303.427158,58.6854391 303.497514,60.538718 C303.427158,62.391997 303.814484,64.1207855 304.655789,65.7250834 C305.198638,67.3938496 306.126592,68.8380882 307.438169,70.0570582 C308.346126,70.7587996 309.253344,71.4605409 310.161301,72.1622823 C312.25938,73.3797703 314.52335,73.9925898 316.951729,74 C318.143331,73.8399407 319.335674,73.6791404 320.528017,73.5190811 C322.806798,72.879585 324.785642,71.7258244 326.46455,70.0570582 C326.823734,69.6984068 327.182177,69.3397555 327.541361,68.9803631 C328.852938,67.7613931 329.780151,66.3164135 330.322259,64.6476473 C331.165046,63.0433494 331.551631,61.3145609 331.481276,59.461282 C331.551631,57.608003 331.165046,55.8792145 330.322259,54.2749166" id="Fill-31-Copy-4" fill="#000000"></path>
                    <path d="M87.3222593,54.2749166 C86.7801508,52.6061504 85.8529378,51.1619118 84.5413609,49.9429418 C83.6334032,49.2412004 82.7254454,48.5394591 81.8182282,47.8377177 C79.719409,46.6202297 77.4561799,46.0074102 75.0278002,46 C73.8354576,46.1600593 72.643115,46.3208596 71.451513,46.4801778 C69.171991,47.120415 67.1931466,48.2741756 65.5142394,49.9429418 L64.4381687,51.0196369 C63.1265919,52.2386069 62.1986383,53.6828455 61.6557892,55.3523527 C60.8144841,56.9559096 60.4271579,58.6854391 60.4975135,60.538718 C60.4271579,62.391997 60.8144841,64.1207855 61.6557892,65.7250834 C62.1986383,67.3938496 63.1265919,68.8380882 64.4381687,70.0570582 C65.3461265,70.7587996 66.2533437,71.4605409 67.1613014,72.1622823 C69.25938,73.3797703 71.5233498,73.9925898 73.9517295,74 C75.1433315,73.8399407 76.3356741,73.6791404 77.5280167,73.5190811 C79.8067981,72.879585 81.7856425,71.7258244 83.4645497,70.0570582 C83.8237336,69.6984068 84.182177,69.3397555 84.5413609,68.9803631 C85.8529378,67.7613931 86.7801508,66.3164135 87.3222593,64.6476473 C88.1650456,63.0433494 88.5516312,61.3145609 88.4812756,59.461282 C88.5516312,57.608003 88.1650456,55.8792145 87.3222593,54.2749166" id="Fill-31-Copy-4" fill="#000000"></path>
                    <path d="M86.4894004,9 C124.044763,9 154.4894,39.444637 154.4894,77 C154.4894,114.555363 124.044763,145 86.4894004,145 C48.9340374,145 18.4894004,114.555363 18.4894004,77 C18.4894004,39.444637 48.9340374,9 86.4894004,9 Z M86.4894004,25.32 C57.9473246,25.32 34.8094004,48.4579241 34.8094004,77 C34.8094004,105.542076 57.9473246,128.68 86.4894004,128.68 C115.031476,128.68 138.1694,105.542076 138.1694,77 C138.1694,48.4579241 115.031476,25.32 86.4894004,25.32 Z" id="Combined-Shape" fill="#9B9B9B"></path>
                    <g id="Group" stroke-width="1" fill="none" transform="translate(189.439301, 172.510175) rotate(-10.000000) translate(-189.439301, -172.510175) translate(44.939301, 134.010175)">
                        <path d="M284.46481,53.3541135 C286.039251,50.8823019 288.558356,45.6197352 288.558356,40.5166403 C288.558356,35.4135453 287.456247,28.7157332 283.205257,24.4099969 C280.056376,21.3002984 273.99478,18.2703358 267.775739,20.0245246 C259.116316,22.4166004 254.392994,28.7954691 254.392994,28.7954691 C254.392994,28.7954691 267.145963,24.888412 271.396953,27.1210161 C276.198997,29.5130918 278.481936,36.0514322 278.088325,39.1611307 C277.379827,45.3007918 275.333054,49.9254716 266.437465,52.7162266 C255.337658,56.2246044 244.080408,50.244415 231.721049,42.5100368 C221.408462,36.0514322 197.31952,9.41965546 172.049748,2.48263576 C161.186108,-0.547326863 138.356718,5.03418323 144.182149,28.7157332 C149.299081,49.3673206 187.479266,65.8726433 207.395941,72.4109837 C234.318876,81.261664 267.933183,76.6369842 283.205257,55.5069817 C283.205257,55.5069817 283.520146,55.1083024 283.992478,54.3109438 C284.0712,53.9920004 284.228644,53.6730569 284.46481,53.3541135 Z" id="Path" fill="#FFFFFF" fill-rule="nonzero"></path>
                        <path d="M4.7809319,52.0173284 C3.20649125,49.5455168 0.687386228,44.2829501 0.687386228,39.1798552 C0.687386228,34.0767602 1.78949468,27.3789481 6.04048441,23.0732118 C9.18936569,19.9635133 15.2509622,16.9335507 21.4700027,18.6877395 C30.1294262,21.0798153 34.8527481,27.458684 34.8527481,27.458684 C34.8527481,27.458684 22.099779,23.5516269 17.8487892,25.784231 C13.0467453,28.1763067 10.7638063,34.7146471 11.1574165,37.8243456 C11.8659148,43.9640067 13.9126876,48.5886865 22.8082772,51.3794416 C33.9080838,54.8878193 45.1653343,48.9076299 57.5246934,41.1732517 C67.8372796,34.7146471 91.9262214,8.08287036 117.195994,1.14585067 C128.059634,-1.88411196 150.889023,3.69739814 145.063593,27.3789481 C139.946661,48.0305355 101.766475,64.5358582 81.8498013,71.0741986 C54.9268663,79.9248789 21.3125586,75.3001991 6.04048441,54.1701966 C6.04048441,54.1701966 5.72559628,53.7715173 5.25326409,52.9741587 C5.17454206,52.6552153 4.93837596,52.3362719 4.7809319,52.0173284 Z" id="Path" fill="#FFFFFF" fill-rule="nonzero"></path>
                    </g>
                </g>
            </g>
        </g>
    </g>
</svg>