<?xml version="1.0" encoding="UTF-8"?>
<svg width="204px" height="79px" viewBox="0 0 204 79" version="1.1" xmlns="http://www.w3.org/2000/svg" xmlns:xlink="http://www.w3.org/1999/xlink">
    <title>THT_Black-Grey_Text</title>
    <g id="THT_Black-Grey_Text" stroke="none" stroke-width="1" fill="none" fill-rule="evenodd">
        <g id="Group-5-Copy-2" transform="translate(43.510600, 22.000000)">
            <path d="M14.591439,9.41855714 C14.4985061,9.13248293 14.3395553,8.88489917 14.1147136,8.67593289 C13.9590637,8.55563436 13.8034138,8.43533584 13.6478908,8.31503732 C13.2880932,8.10632509 12.9001111,8.00127031 12.4838174,8 C12.2794159,8.02743873 12.0750143,8.0550045 11.8707396,8.0823162 C11.4799644,8.19207114 11.140734,8.38985868 10.8529213,8.67593289 L10.6684521,8.86050918 C10.4436103,9.06947547 10.2845326,9.31705923 10.1914727,9.60326047 C10.047249,9.87815593 9.9808502,10.1746467 9.99291116,10.4923517 C9.9808502,10.8100566 10.047249,11.1064204 10.1914727,11.3814429 C10.2845326,11.6675171 10.4436103,11.9151008 10.6684521,12.1240671 C10.824102,12.2443656 10.9796249,12.3646642 11.1352748,12.4849627 C11.4949454,12.6936749 11.8830545,12.7987297 12.2993482,12.8 C12.5036228,12.7725613 12.7080244,12.7449955 12.912426,12.7175568 C13.3030742,12.6079289 13.6423047,12.4101413 13.9301174,12.1240671 C13.9916918,12.062584 14.0531392,12.0011009 14.1147136,11.9394908 C14.3395553,11.7305245 14.4985061,11.4828137 14.591439,11.1967395 C14.7359167,10.921717 14.8021885,10.6253533 14.7901275,10.3076483 C14.8021885,9.98994337 14.7359167,9.69357963 14.591439,9.41855714" id="Fill-31" fill="#155E35"></path>
            <path d="M56.191439,9.41855714 C56.0985061,9.13248293 55.9395553,8.88489917 55.7147136,8.67593289 C55.5590637,8.55563436 55.4034138,8.43533584 55.2478908,8.31503732 C54.8880932,8.10632509 54.5001111,8.00127031 54.0838174,8 C53.8794159,8.02743873 53.6750143,8.0550045 53.4707396,8.0823162 C53.0799644,8.19207114 52.740734,8.38985868 52.4529213,8.67593289 L52.2684521,8.86050918 C52.0436103,9.06947547 51.8845326,9.31705923 51.7914727,9.60326047 C51.647249,9.87815593 51.5808502,10.1746467 51.5929112,10.4923517 C51.5808502,10.8100566 51.647249,11.1064204 51.7914727,11.3814429 C51.8845326,11.6675171 52.0436103,11.9151008 52.2684521,12.1240671 C52.424102,12.2443656 52.5796249,12.3646642 52.7352748,12.4849627 C53.0949454,12.6936749 53.4830545,12.7987297 53.8993482,12.8 C54.1036228,12.7725613 54.3080244,12.7449955 54.512426,12.7175568 C54.9030742,12.6079289 55.2423047,12.4101413 55.5301174,12.1240671 C55.5916918,12.062584 55.6531392,12.0011009 55.7147136,11.9394908 C55.9395553,11.7305245 56.0985061,11.4828137 56.191439,11.1967395 C56.3359167,10.921717 56.4021885,10.6253533 56.3901275,10.3076483 C56.4021885,9.98994337 56.3359167,9.69357963 56.191439,9.41855714" id="Fill-31-Copy" fill="#155E35"></path>
            <path d="M53.5915203,2.27373675e-14 C59.1143678,2.27373675e-14 63.5915203,4.4771525 63.5915203,10 C63.5915203,12.6606346 62.5524469,15.0785806 60.8579587,16.8701792 C61.6604322,18.6052113 62.27908,20.4646603 62.697945,22.4341916 C65.7691841,38.9591956 54.4399237,52.2648297 37.2058678,55.926046 C19.9718119,59.5872622 3.44307826,50.5284527 0.287907849,35.6926286 C-0.752467896,30.5853328 1.06557443,23.5869243 5.11307171,17.2581571 C3.19048382,15.4360047 1.99152035,12.8580188 1.99152035,10 C1.99152035,4.4771525 6.46867285,2.27373675e-14 11.9915203,2.27373675e-14 C15.2948477,2.27373675e-14 18.2240799,1.60169204 20.0449662,4.07082551 C21.8576827,3.26293309 23.7727895,2.62718444 25.779985,2.20077426 C33.3718921,0.94330152 40.2218928,1.51421263 45.929233,3.57509529 C47.7625417,1.38951287 50.514762,2.27373675e-14 53.5915203,2.27373675e-14 Z M26.8246772,5.33297827 C24.9773213,5.72543201 23.217894,6.31776727 21.5555395,7.07275426 C21.8393015,7.99885633 21.9915203,8.98165186 21.9915203,10 C21.9915203,15.5228475 17.5143678,20 11.9915203,20 C10.630374,20 9.33274443,19.7280523 8.150001,19.2355262 C4.79812728,24.7032991 3.31602888,30.6600992 4.20932213,35.0453541 C7.00843884,48.2069898 21.6719431,56.2435335 36.9611755,52.995477 C52.2504079,49.7474206 62.3011875,37.9432966 59.5765306,23.2831012 C59.2478906,21.7378139 58.7806222,20.2689124 58.1841373,18.8843445 C56.8090033,19.5976009 55.2472545,20 53.5915203,20 C48.0686728,20 43.5915203,15.5228475 43.5915203,10 C43.5915203,8.73025841 43.8281703,7.51578938 44.2597703,6.39829286 C39.287119,4.69612957 33.366352,4.24945899 26.8246772,5.33297827 Z" id="Combined-Shape" fill="#9B9B9B"></path>
            <path d="M56.191439,9.41855714 C56.0985061,9.13248293 55.9395553,8.88489917 55.7147136,8.67593289 C55.5590637,8.55563436 55.4034138,8.43533584 55.2478908,8.31503732 C54.8880932,8.10632509 54.5001111,8.00127031 54.0838174,8 C53.8794159,8.02743873 53.6750143,8.0550045 53.4707396,8.0823162 C53.0799644,8.19207114 52.740734,8.38985868 52.4529213,8.67593289 L52.2684521,8.86050918 C52.0436103,9.06947547 51.8845326,9.31705923 51.7914727,9.60326047 C51.647249,9.87815593 51.5808502,10.1746467 51.5929112,10.4923517 C51.5808502,10.8100566 51.647249,11.1064204 51.7914727,11.3814429 C51.8845326,11.6675171 52.0436103,11.9151008 52.2684521,12.1240671 C52.424102,12.2443656 52.5796249,12.3646642 52.7352748,12.4849627 C53.0949454,12.6936749 53.4830545,12.7987297 53.8993482,12.8 C54.1036228,12.7725613 54.3080244,12.7449955 54.512426,12.7175568 C54.9030742,12.6079289 55.2423047,12.4101413 55.5301174,12.1240671 C55.5916918,12.062584 55.6531392,12.0011009 55.7147136,11.9394908 C55.9395553,11.7305245 56.0985061,11.4828137 56.191439,11.1967395 C56.3359167,10.921717 56.4021885,10.6253533 56.3901275,10.3076483 C56.4021885,9.98994337 56.3359167,9.69357963 56.191439,9.41855714" id="Fill-31-Copy-4" fill="#000000"></path>
            <path d="M14.591439,9.41855714 C14.4985061,9.13248293 14.3395553,8.88489917 14.1147136,8.67593289 C13.9590637,8.55563436 13.8034138,8.43533584 13.6478908,8.31503732 C13.2880932,8.10632509 12.9001111,8.00127031 12.4838174,8 C12.2794159,8.02743873 12.0750143,8.0550045 11.8707396,8.0823162 C11.4799644,8.19207114 11.140734,8.38985868 10.8529213,8.67593289 L10.6684521,8.86050918 C10.4436103,9.06947547 10.2845326,9.31705923 10.1914727,9.60326047 C10.047249,9.87815593 9.9808502,10.1746467 9.99291116,10.4923517 C9.9808502,10.8100566 10.047249,11.1064204 10.1914727,11.3814429 C10.2845326,11.6675171 10.4436103,11.9151008 10.6684521,12.1240671 C10.824102,12.2443656 10.9796249,12.3646642 11.1352748,12.4849627 C11.4949454,12.6936749 11.8830545,12.7987297 12.2993482,12.8 C12.5036228,12.7725613 12.7080244,12.7449955 12.912426,12.7175568 C13.3030742,12.6079289 13.6423047,12.4101413 13.9301174,12.1240671 C13.9916918,12.062584 14.0531392,12.0011009 14.1147136,11.9394908 C14.3395553,11.7305245 14.4985061,11.4828137 14.591439,11.1967395 C14.7359167,10.921717 14.8021885,10.6253533 14.7901275,10.3076483 C14.8021885,9.98994337 14.7359167,9.69357963 14.591439,9.41855714" id="Fill-31-Copy-4" fill="#000000"></path>
            <path d="M14.3915203,1.6 C20.7980234,1.6 25.9915203,6.7934969 25.9915203,13.2 C25.9915203,19.6065031 20.7980234,24.8 14.3915203,24.8 C7.98501725,24.8 2.79152035,19.6065031 2.79152035,13.2 C2.79152035,6.7934969 7.98501725,1.6 14.3915203,1.6 Z M14.3915203,4.384 C9.52257799,4.384 5.57552035,8.33105765 5.57552035,13.2 C5.57552035,18.0689424 9.52257799,22.016 14.3915203,22.016 C19.2604627,22.016 23.2075203,18.0689424 23.2075203,13.2 C23.2075203,8.33105765 19.2604627,4.384 14.3915203,4.384 Z" id="Combined-Shape" fill="#000000"></path>
            <g id="Group" transform="translate(31.827251, 29.704318) rotate(-10.000000) translate(-31.827251, -29.704318) translate(6.827251, 22.704318)" fill="#000000" fill-rule="nonzero">
                <path d="M49.1358169,9.33800124 C49.4045214,8.91581145 49.8344487,8.01695579 49.8344487,7.14533817 C49.8344487,6.27372055 49.6463555,5.12972243 48.9208532,4.39429506 C48.3834442,3.86315308 47.3489317,3.34563012 46.2875488,3.64524867 C44.8096738,4.05381943 44.0035602,5.14334145 44.0035602,5.14334145 C44.0035602,5.14334145 46.180067,4.47600921 46.9055692,4.85734192 C47.7251181,5.26591268 48.1147396,6.38267275 48.0475635,6.91381474 C47.9266465,7.96247969 47.5773306,8.75238315 46.0591499,9.22904904 C44.164783,9.82828615 42.2435455,8.80685925 40.1342149,7.4858138 C38.3742002,6.38267275 34.2630208,1.83391831 29.950313,0.649063113 C28.0962517,0.131540152 24.2000359,1.08487192 25.1942427,5.12972243 C26.0675324,8.65704997 32.5836174,11.4761882 35.9827298,12.5929483 C40.5775774,14.1046601 46.3144192,13.3147566 48.9208532,9.70571492 C48.9208532,9.70571492 48.9745941,9.63761979 49.0552055,9.50142954 C49.0686407,9.44695344 49.0955112,9.39247734 49.1358169,9.33800124 Z" id="Path"></path>
                <path d="M1.40310167,9.10967599 C1.13439714,8.6874862 0.70446988,7.78863053 0.70446988,6.91701292 C0.70446988,6.0453953 0.892563055,4.90139718 1.6180653,4.16596981 C2.15547437,3.63482783 3.18998684,3.11730487 4.25136976,3.41692342 C5.72924471,3.82549418 6.53535831,4.9150162 6.53535831,4.9150162 C6.53535831,4.9150162 4.35885157,4.24768396 3.63334932,4.62901667 C2.81380049,5.03758743 2.42417891,6.1543475 2.49135504,6.68548949 C2.61227209,7.73415443 2.96158798,8.5240579 4.47976861,9.00072378 C6.37413559,9.5999609 8.29537302,8.578534 10.4047036,7.25748855 C12.1647183,6.1543475 16.2758977,1.60559306 20.5886056,0.420737861 C22.4426669,-0.0967850997 26.3388826,0.85654667 25.3446758,4.90139718 C24.4713861,8.42872472 17.9553011,11.247863 14.5561887,12.364623 C9.96134115,13.8763348 4.2244993,13.0864314 1.6180653,9.47738967 C1.6180653,9.47738967 1.5643244,9.40929454 1.48371303,9.27310429 C1.47027781,9.21862819 1.42997213,9.16415209 1.40310167,9.10967599 Z" id="Path"></path>
            </g>
        </g>
        <polygon id="T" fill="#000000" fill-rule="nonzero" points="25.8398438 75 25.8398438 34.6757812 40.9570312 34.6757812 40.9570312 24.5859375 0.6328125 24.5859375 0.6328125 34.6757812 15.7851562 34.6757812 15.7851562 75"></polygon>
        <path d="M8.05,17 L8.05,2.004 L13.662,2.004 L13.662,0.9 L1.242,0.9 L1.242,2.004 L6.854,2.004 L6.854,17 L8.05,17 Z M19.317,17 L19.317,9.456 L29.621,9.456 L29.621,17 L30.817,17 L30.817,0.9 L29.621,0.9 L29.621,8.352 L19.317,8.352 L19.317,0.9 L18.121,0.9 L18.121,17 L19.317,17 Z M47.995,17 L47.995,15.896 L37.622,15.896 L37.622,9.433 L46.845,9.433 L46.845,8.329 L37.622,8.329 L37.622,2.004 L47.88,2.004 L47.88,0.9 L36.426,0.9 L36.426,17 L47.995,17 Z M61.582,17 L61.582,9.456 L71.886,9.456 L71.886,17 L73.082,17 L73.082,0.9 L71.886,0.9 L71.886,8.352 L61.582,8.352 L61.582,0.9 L60.386,0.9 L60.386,17 L61.582,17 Z M78.553,17 L80.6,12.492 L90.099,12.492 L92.146,17 L93.457,17 L85.959,0.785 L84.809,0.785 L77.311,17 L78.553,17 Z M89.593,11.411 L81.106,11.411 L85.361,2.096 L89.593,11.411 Z M98.836,17 L98.836,2.694 L110.175,17 L111.072,17 L111.072,0.9 L109.922,0.9 L109.922,14.907 L98.813,0.9 L97.686,0.9 L97.686,17 L98.836,17 Z M122.04,17 C124.539333,17 126.590167,16.2333333 128.1925,14.7 C129.794833,13.1666667 130.596,11.25 130.596,8.95 L130.596,8.95 L130.596,8.904 C130.596,6.61933333 129.794833,4.71416667 128.1925,3.1885 C126.590167,1.66283333 124.539333,0.9 122.04,0.9 L122.04,0.9 L116.681,0.9 L116.681,17 L122.04,17 Z M122.04,15.896 L117.877,15.896 L117.877,2.004 L122.04,2.004 C124.232667,2.004 125.999833,2.671 127.3415,4.005 C128.683167,5.339 129.354,6.98733333 129.354,8.95 L129.354,8.95 L129.354,8.996 C129.354,10.9586667 128.683167,12.5993333 127.3415,13.918 C125.999833,15.2366667 124.232667,15.896 122.04,15.896 L122.04,15.896 Z M140.713,17.23 C142.277,17.23 143.557333,16.8198333 144.554,15.9995 C145.550667,15.1791667 146.049,14.125 146.049,12.837 L146.049,12.837 L146.049,12.791 C146.049,11.6103333 145.631167,10.6711667 144.7955,9.9735 C143.959833,9.27583333 142.614333,8.73533333 140.759,8.352 C138.934333,7.984 137.696167,7.53166667 137.0445,6.995 C136.392833,6.45833333 136.067,5.73766667 136.067,4.833 L136.067,4.833 L136.067,4.787 C136.067,3.92833333 136.431167,3.20766667 137.1595,2.625 C137.887833,2.04233333 138.834667,1.751 140,1.751 C141.809333,1.751 143.411667,2.35666667 144.807,3.568 L144.807,3.568 L145.566,2.625 C144.722667,1.95033333 143.8755,1.45583333 143.0245,1.1415 C142.1735,0.827166667 141.180667,0.67 140.046,0.67 C138.558667,0.67 137.324333,1.07633333 136.343,1.889 C135.361667,2.70166667 134.871,3.706 134.871,4.902 L134.871,4.902 L134.871,4.948 C134.871,6.17466667 135.292667,7.14066667 136.136,7.846 C136.979333,8.55133333 138.367,9.09566667 140.299,9.479 C142.062333,9.83166667 143.262167,10.2686667 143.8985,10.79 C144.534833,11.3113333 144.853,12.0166667 144.853,12.906 L144.853,12.906 L144.853,12.952 C144.853,13.872 144.4735,14.6348333 143.7145,15.2405 C142.9555,15.8461667 141.978,16.149 140.782,16.149 C139.616667,16.149 138.589333,15.9611667 137.7,15.5855 C136.810667,15.2098333 135.913667,14.6003333 135.009,13.757 L135.009,13.757 L134.227,14.654 C136.143667,16.3713333 138.305667,17.23 140.713,17.23 Z M158.167,17.276 C160.543667,17.276 162.491,16.4556667 164.009,14.815 C165.527,13.1743333 166.286,11.2193333 166.286,8.95 L166.286,8.95 L166.286,8.904 C166.286,6.63466667 165.534667,4.68733333 164.032,3.062 C162.529333,1.43666667 160.589667,0.624 158.213,0.624 C155.836333,0.624 153.889,1.44433333 152.371,3.085 C150.853,4.72566667 150.094,6.68066667 150.094,8.95 L150.094,8.95 L150.094,8.996 C150.094,11.2653333 150.845333,13.2126667 152.348,14.838 C153.850667,16.4633333 155.790333,17.276 158.167,17.276 Z M158.213,16.195 C156.250333,16.195 154.609667,15.4896667 153.291,14.079 C151.987667,12.6683333 151.336,10.9586667 151.336,8.95 L151.336,8.95 L151.336,8.904 C151.336,6.89533333 151.983833,5.19333333 153.2795,3.798 C154.575167,2.40266667 156.204333,1.705 158.167,1.705 C160.129667,1.705 161.7665,2.41033333 163.0775,3.821 C164.3885,5.23166667 165.044,6.94133333 165.044,8.95 L165.044,8.95 L165.044,8.996 C165.044,11.0046667 164.396167,12.7066667 163.1005,14.102 C161.804833,15.4973333 160.175667,16.195 158.213,16.195 Z M172.332,17 L172.332,3.016 L178.703,12.285 L178.795,12.285 L185.166,3.016 L185.166,17 L186.362,17 L186.362,0.9 L185.235,0.9 L178.772,10.422 L172.309,0.9 L171.182,0.9 L171.182,17 L172.332,17 Z M203.54,17 L203.54,15.896 L193.167,15.896 L193.167,9.433 L202.39,9.433 L202.39,8.329 L193.167,8.329 L193.167,2.004 L203.425,2.004 L203.425,0.9 L191.971,0.9 L191.971,17 L203.54,17 Z" id="THEHANDSOME" fill="#000000" fill-rule="nonzero"></path>
        <path d="M121.167969,75 L121.167969,64.9101562 L141.347656,64.9101562 L141.347656,75 L151.4375,75 L151.4375,44.765625 C151.4375,41.9765625 150.910156,39.3574219 149.855469,36.9082031 C148.800781,34.4589844 147.359375,32.3203125 145.53125,30.4921875 C143.703125,28.6640625 141.564453,27.2226562 139.115234,26.1679688 C136.666016,25.1132812 134.046875,24.5859375 131.257812,24.5859375 C128.46875,24.5859375 125.849609,25.1132812 123.400391,26.1679688 C120.951172,27.2226562 118.818359,28.6640625 117.001953,30.4921875 C115.185547,32.3203125 113.75,34.4589844 112.695312,36.9082031 C111.640625,39.3574219 111.113281,41.9765625 111.113281,44.765625 L111.113281,44.765625 L111.113281,75 L121.167969,75 Z M141.347656,54.8554688 L121.167969,54.8554688 L121.167969,44.765625 C121.167969,43.3828125 121.431641,42.0761719 121.958984,40.8457031 C122.486328,39.6152344 123.207031,38.5429688 124.121094,37.6289062 C125.035156,36.7148438 126.107422,35.9941406 127.337891,35.4667969 C128.568359,34.9394531 129.875,34.6757812 131.257812,34.6757812 C132.640625,34.6757812 133.947266,34.9394531 135.177734,35.4667969 C136.408203,35.9941406 137.480469,36.7148438 138.394531,37.6289062 C139.308594,38.5429688 140.029297,39.6152344 140.556641,40.8457031 C141.083984,42.0761719 141.347656,43.3828125 141.347656,44.765625 L141.347656,44.765625 L141.347656,54.8554688 Z M177.961515,75 C180.281827,75 182.514249,74.7011719 184.658781,74.1035156 C186.803312,73.5058594 188.813077,72.65625 190.688077,71.5546875 C192.563077,70.453125 194.262296,69.1347656 195.785734,67.5996094 C197.309171,66.0644531 198.621671,64.3652344 199.723234,62.5019531 C200.824796,60.6386719 201.674406,58.6347656 202.272062,56.4902344 C202.869718,54.3457031 203.168546,52.1132812 203.168546,49.7929688 C203.168546,47.4726562 202.869718,45.2402344 202.272062,43.0957031 C201.674406,40.9511719 200.824796,38.9472656 199.723234,37.0839844 C198.621671,35.2207031 197.309171,33.5214844 195.785734,31.9863281 C194.262296,30.4511719 192.563077,29.1328125 190.688077,28.03125 C188.813077,26.9296875 186.803312,26.0800781 184.658781,25.4824219 C182.514249,24.8847656 180.281827,24.5859375 177.961515,24.5859375 L177.961515,24.5859375 L162.774015,24.5859375 L162.774015,75 L177.961515,75 Z M177.961515,64.9101562 L172.934171,64.9101562 L172.934171,34.6757812 L177.961515,34.6757812 C180.047452,34.6757812 182.010343,35.0742188 183.850187,35.8710938 C185.690031,36.6679688 187.295499,37.7519531 188.666593,39.1230469 C190.037687,40.4941406 191.115812,42.09375 191.900968,43.921875 C192.686124,45.75 193.078702,47.7070312 193.078702,49.7929688 C193.078702,51.8789062 192.686124,53.8417969 191.900968,55.6816406 C191.115812,57.5214844 190.037687,59.1269531 188.666593,60.4980469 C187.295499,61.8691406 185.690031,62.9472656 183.850187,63.7324219 C182.010343,64.5175781 180.047452,64.9101562 177.961515,64.9101562 L177.961515,64.9101562 Z" id="AD" fill="#000000" fill-rule="nonzero"></path>
    </g>
</svg>