<?xml version="1.0" encoding="utf-8"?>
<!-- Generator: Adobe Adobe Illustrator 24.2.0, SVG Export Plug-In . SVG Version: 6.00 Build 0)  -->
<svg version="1.1" id="Layer_1" xmlns="http://www.w3.org/2000/svg" xmlns:xlink="http://www.w3.org/1999/xlink" x="0px" y="0px"
	 width="1920px" height="1080px" viewBox="0 0 1920 1080" style="enable-background:new 0 0 1920 1080;" xml:space="preserve">
<style type="text/css">
	.st0{fill-rule:evenodd;clip-rule:evenodd;fill:#155E35;}
	.st1{fill-rule:evenodd;clip-rule:evenodd;fill:#7CA39B;}
	.st2{fill-rule:evenodd;clip-rule:evenodd;}
	.st3{fill:#FA2A2A;}
	.st4{opacity:0.3608;}
	.st5{fill:#B5F0F7;}
	.st6{opacity:0.4392;}
	.st7{opacity:0.3686;}
	.st8{opacity:0.3804;}
	.st9{fill:none;stroke:#000000;stroke-miterlimit:10;}
	.st10{fill:#202630;}
	.st11{fill:#FDCB03;}
	.st12{fill:#010101;}
	.st13{fill:#1E2532;}
	.st14{fill:#23272E;}
	.st15{fill:#F5C506;}
	.st16{fill:#C1C0BC;}
	.st17{fill:#26292E;}
	.st18{fill:#FEFEFE;}
	.st19{fill:#FFFFFF;}
	.st20{fill:#9FD955;}
	.st21{fill:#9DD158;}
	.st22{fill:#A4D663;}
	.st23{fill:#B9E87B;}
	.st24{fill:#8FB360;}
	.st25{fill:#7FB33B;}
	.st26{fill:#EDA335;}
	.st27{fill:#C6FF7A;}
	.st28{fill:#333333;}
	.st29{fill:#96C45A;}
	.st30{fill:#292A2E;}
	.st31{fill:#6C9437;}
	.st32{fill:#2D2E2E;}
	.st33{fill:#4A4B59;}
	.st34{fill:#EDEDED;}
	.st35{fill:#5A5A5A;}
	.st36{fill:#6C8C6F;}
	.st37{fill:#4E731E;}
	.st38{fill:#454545;}
	.st39{fill:#85BA70;}
	.st40{fill:#BFE1E1;}
	.st41{fill:#E4F2F1;}
	.st42{fill:#91AAA9;}
	.st43{fill:#709E34;}
	.st44{fill:#3B3B3B;}
	.st45{fill:#6C8C6F;stroke:#718A7A;stroke-miterlimit:10;}
	.st46{fill:#718A7A;}
	.st47{fill:none;}
	.st48{fill:none;stroke:#A4FF59;stroke-width:11;stroke-miterlimit:10;}
	.st49{fill:none;stroke:#22663B;stroke-width:13;stroke-miterlimit:10;}
	.st50{fill:none;stroke:#C8EDC5;stroke-width:12;stroke-miterlimit:10;}
	.st51{fill:none;stroke:#7CBA00;stroke-width:10;stroke-miterlimit:10;}
	.st52{fill:none;stroke:#419C6D;stroke-width:15;stroke-miterlimit:10;}
	.st53{fill:#547558;}
	.st54{stroke:#718A7A;stroke-miterlimit:10;}
	.st55{fill:#316143;}
	.st56{fill:#709E34;stroke:#718A7A;stroke-miterlimit:10;}
	.st57{fill:#7CA39B;stroke:#718A7A;stroke-miterlimit:10;}
</style>
<g>
	<g id="THT_Fullcolour_Brand">
		<g id="Group-5-Copy-2" transform="translate(0.510600, 0.000000)">
			<path class="st0" d="M466.98,400.97c4.63,2.91,9.62,4.38,14.97,4.4c2.63-0.38,5.26-0.77,7.89-1.15
				c5.03-1.53,9.39-4.29,13.09-8.28c0.79-0.86,1.58-1.72,2.37-2.58c2.89-2.92,4.94-6.37,6.13-10.37c1.86-3.84,2.71-7.98,2.56-12.41
				c0.16-4.43-0.7-8.57-2.56-12.41"/>
			<path id="Fill-31-Copy-4_1_" class="st0" d="M511.44,358.16c-1.2-3.99-3.24-7.45-6.13-10.37c-2-1.68-4-3.36-6-5.04
				c-4.63-2.91-9.62-4.38-14.97-4.4c-2.63,0.38-5.26,0.77-7.89,1.15c-5.03,1.53-9.39,4.29-13.09,8.29l-2.37,2.58
				c-2.89,2.92-4.94,6.37-6.14,10.37c-1.86,3.84-2.71,7.98-2.55,12.41c-0.16,4.43,0.7,8.57,2.55,12.41"/>
			<path class="st0" d="M1049.11,370.57c0.16-4.43-0.7-8.57-2.56-12.41"/>
			<path id="Fill-31-Copy-4" class="st0" d="M1046.56,358.16c-1.2-3.99-3.24-7.45-6.13-10.37c-2-1.68-4-3.36-6-5.04
				c-4.63-2.91-9.62-4.38-14.97-4.4c-2.63,0.38-5.26,0.77-7.89,1.15c-5.03,1.53-9.39,4.29-13.09,8.29l-2.37,2.58
				c-2.89,2.92-4.94,6.37-6.14,10.37c-1.86,3.84-2.71,7.98-2.55,12.41c-0.16,4.43,0.7,8.57,2.55,12.41
				c1.2,3.99,3.24,7.45,6.14,10.37c2,1.68,4,3.36,6,5.04c4.63,2.91,9.62,4.38,14.97,4.4c2.63-0.38,5.26-0.77,7.89-1.15
				c5.03-1.53,9.39-4.29,13.09-8.28"/>
			<path id="Fill-31" class="st0" d="M511.44,358.16c-1.2-3.99-3.24-7.45-6.13-10.37c-2-1.68-4-3.36-6-5.04
				c-4.63-2.91-9.62-4.38-14.97-4.4c-2.63,0.38-5.26,0.77-7.89,1.15c-5.03,1.53-9.39,4.29-13.09,8.29l-2.37,2.58
				c-2.89,2.92-4.94,6.37-6.14,10.37c-1.86,3.84-2.71,7.98-2.55,12.41c-0.16,4.43,0.7,8.57,2.55,12.41
				c1.2,3.99,3.24,7.45,6.14,10.37c2,1.68,4,3.36,6,5.04c4.63,2.91,9.62,4.38,14.97,4.4c2.63-0.38,5.26-0.77,7.89-1.15
				c5.03-1.53,9.39-4.29,13.09-8.28c0.79-0.86,1.58-1.72,2.37-2.58c2.89-2.92,4.94-6.37,6.13-10.37c1.86-3.84,2.71-7.98,2.56-12.41
				C514.15,366.14,513.3,362,511.44,358.16"/>
			<path id="Fill-31-Copy" class="st0" d="M1046.56,358.16c-1.2-3.99-3.24-7.45-6.13-10.37c-2-1.68-4-3.36-6-5.04
				c-4.63-2.91-9.62-4.38-14.97-4.4c-2.63,0.38-5.26,0.77-7.89,1.15c-5.03,1.53-9.39,4.29-13.09,8.29l-2.37,2.58
				c-2.89,2.92-4.94,6.37-6.14,10.37c-1.86,3.84-2.71,7.98-2.55,12.41c-0.16,4.43,0.7,8.57,2.55,12.41
				c1.2,3.99,3.24,7.45,6.14,10.37c2,1.68,4,3.36,6,5.04c4.63,2.91,9.62,4.38,14.97,4.4c2.63-0.38,5.26-0.77,7.89-1.15
				c5.03-1.53,9.39-4.29,13.09-8.28c0.79-0.86,1.58-1.72,2.37-2.58c2.89-2.92,4.94-6.37,6.13-10.37c1.86-3.84,2.71-7.98,2.56-12.41
				C1049.27,366.14,1048.42,362,1046.56,358.16"/>
			<path id="Combined-Shape" class="st1" d="M1022.42,240.69c71.04,0,128.63,62.5,128.63,139.59c0,37.14-13.37,70.89-35.16,95.9
				c10.32,24.22,18.28,50.17,23.67,77.67c39.51,230.67-106.23,416.4-327.91,467.51s-434.3-75.34-474.89-282.43
				c-13.38-71.29,10-168.98,62.07-257.32c-24.73-25.44-40.15-61.42-40.15-101.32c0-77.09,57.59-139.59,128.63-139.59
				c42.49,0,80.17,22.36,103.59,56.82c23.32-11.28,47.95-20.15,73.77-26.1c97.66-17.55,185.77-9.58,259.19,19.18
				C947.44,260.09,982.85,240.69,1022.42,240.69z M678.11,315.13c-23.76,5.48-46.4,13.75-67.78,24.29
				c3.65,12.93,5.61,26.65,5.61,40.86c0,77.09-57.59,139.59-128.63,139.59c-17.51,0-34.2-3.8-49.41-10.67
				c-43.12,76.32-62.18,159.47-50.69,220.69c36.01,183.72,224.63,295.9,421.3,250.56s325.96-210.11,290.91-414.75
				c-4.23-21.57-10.24-42.07-17.91-61.4c-17.69,9.96-37.78,15.57-59.08,15.57c-71.04,0-128.63-62.5-128.63-139.59
				c0-17.72,3.04-34.68,8.6-50.28C838.42,306.24,762.26,300.01,678.11,315.13z"/>
		</g>
	</g>
</g>
<g>
	<g>
		<g id="THT_Black-Grey_Text">
			<g id="Group-5-Copy-2_1_" transform="translate(43.510600, 22.000000)">
				<path id="Fill-31_1_" class="st0" d="M463.51,331.42c-1.19-4.02-3.24-7.5-6.13-10.44c-1.99-1.69-4.01-3.38-6-5.07
					c-4.62-2.94-9.62-4.41-14.97-4.43c-2.63,0.39-5.26,0.78-7.88,1.15c-5.03,1.54-9.39,4.33-13.08,8.35l-2.37,2.6
					c-2.89,2.94-4.94,6.42-6.13,10.44c-1.86,3.87-2.7,8.02-2.55,12.5c-0.15,4.46,0.69,8.63,2.55,12.5c1.19,4.02,3.24,7.5,6.13,10.44
					c1.99,1.69,4.01,3.38,6,5.07c4.62,2.94,9.62,4.41,14.97,4.43c2.63-0.39,5.26-0.78,7.88-1.17c5.03-1.54,9.39-4.33,13.08-8.35
					c0.78-0.86,1.58-1.72,2.37-2.6c2.89-2.94,4.94-6.42,6.13-10.44c1.86-3.87,2.7-8.02,2.55-12.5
					C466.21,339.45,465.37,335.28,463.51,331.42"/>
				<path id="Fill-31-Copy_1_" class="st0" d="M998.47,331.42c-1.19-4.02-3.24-7.5-6.13-10.44c-1.99-1.69-4.01-3.38-6-5.07
					c-4.62-2.94-9.62-4.41-14.97-4.43c-2.63,0.39-5.26,0.78-7.88,1.15c-5.03,1.54-9.39,4.33-13.08,8.35l-2.37,2.6
					c-2.89,2.94-4.94,6.42-6.13,10.44c-1.86,3.87-2.7,8.02-2.55,12.5c-0.15,4.46,0.69,8.63,2.55,12.5c1.19,4.02,3.24,7.5,6.13,10.44
					c1.99,1.69,4.01,3.38,6,5.07c4.62,2.94,9.62,4.41,14.97,4.43c2.63-0.39,5.26-0.78,7.88-1.17c5.03-1.54,9.39-4.33,13.08-8.35
					c0.78-0.86,1.58-1.72,2.37-2.6c2.89-2.94,4.94-6.42,6.13-10.44c1.86-3.87,2.7-8.02,2.55-12.5
					C1001.17,339.45,1000.33,335.28,998.47,331.42"/>
				<path id="Fill-31-Copy-4_3_" class="st2" d="M998.47,331.42c-1.19-4.02-3.24-7.5-6.13-10.44c-1.99-1.69-4.01-3.38-6-5.07
					c-4.62-2.94-9.62-4.41-14.97-4.43c-2.63,0.39-5.26,0.78-7.88,1.15c-5.03,1.54-9.39,4.33-13.08,8.35l-2.37,2.6
					c-2.89,2.94-4.94,6.42-6.13,10.44c-1.86,3.87-2.7,8.02-2.55,12.5c-0.15,4.46,0.69,8.63,2.55,12.5c1.19,4.02,3.24,7.5,6.13,10.44
					c1.99,1.69,4.01,3.38,6,5.07c4.62,2.94,9.62,4.41,14.97,4.43c2.63-0.39,5.26-0.78,7.88-1.17c5.03-1.54,9.39-4.33,13.08-8.35
					c0.78-0.86,1.58-1.72,2.37-2.6c2.89-2.94,4.94-6.42,6.13-10.44c1.86-3.87,2.7-8.02,2.55-12.5
					C1001.17,339.45,1000.33,335.28,998.47,331.42"/>
				<path id="Fill-31-Copy-4_2_" class="st2" d="M463.51,331.42c-1.19-4.02-3.24-7.5-6.13-10.44c-1.99-1.69-4.01-3.38-6-5.07
					c-4.62-2.94-9.62-4.41-14.97-4.43c-2.63,0.39-5.26,0.78-7.88,1.15c-5.03,1.54-9.39,4.33-13.08,8.35l-2.37,2.6
					c-2.89,2.94-4.94,6.42-6.13,10.44c-1.86,3.87-2.7,8.02-2.55,12.5c-0.15,4.46,0.69,8.63,2.55,12.5c1.19,4.02,3.24,7.5,6.13,10.44
					c1.99,1.69,4.01,3.38,6,5.07c4.62,2.94,9.62,4.41,14.97,4.43c2.63-0.39,5.26-0.78,7.88-1.17c5.03-1.54,9.39-4.33,13.08-8.35
					c0.78-0.86,1.58-1.72,2.37-2.6c2.89-2.94,4.94-6.42,6.13-10.44c1.86-3.87,2.7-8.02,2.55-12.5
					C466.21,339.45,465.37,335.28,463.51,331.42"/>
			</g>
		</g>
	</g>
</g>
<g>
	<path class="st34" d="M1155.3,889.4c1.44,0.03,2.89,0.22,4.57,0.48"/>
	<path class="st34" d="M1141.2,883.47c2.6,0.95,5.2,2.08,7.91,3.38"/>
	<path class="st35" d="M1273.92,715.58c-1.54,2.55-3.08,5.1-4.74,7.96c-0.13,0.4-0.14,0.49-0.16,0.58
		c-1.51,2.62-3.02,5.23-4.77,8.15c-1.81,3.2-3.36,6.09-5.05,9.06c-0.26,0.35-0.38,0.62-0.65,1.05c-1.38,2.49-2.61,4.84-3.84,7.18
		c-1.65,2.61-3.29,5.22-5.16,8.09c-0.34,0.54-0.46,0.83-0.57,1.12c-1.52,2.63-3.04,5.27-4.76,8.22c-3.42,5.93-6.63,11.53-9.94,17.33
		c-3.25,5.75-6.39,11.31-9.7,16.97c-2.45,3.98-4.79,7.83-7.02,11.74c-1.08,1.89-1.96,3.9-3.05,5.99c-1.24,2.01-2.35,3.88-3.68,5.71
		c-1.97-0.87-3.76-1.67-5.48-2.57c-8.54-4.49-17.04-9.07-25.61-13.51c-10.92-5.66-21.89-11.21-33-16.93
		c-6.28-3.31-12.39-6.5-18.53-9.66c-9.34-4.81-18.68-9.64-28.06-14.39c-3.37-1.71-6.83-3.23-10.39-4.97
		c-0.8-0.58-1.43-1.1-2.14-1.47c-8.07-4.19-16.17-8.33-24.23-12.54c-6.83-3.56-13.59-7.24-20.43-10.77
		c-7.17-3.7-14.39-7.29-21.66-11.06c-0.31-0.45-0.56-0.77-0.64-1.16c3.15-4.79,6.12-9.51,9.12-14.2
		c6.22-9.72,12.48-19.4,18.67-29.14c4.14-6.52,8.21-13.09,12.22-19.69c2.07-3.4,3.96-6.92,6.18-10.34c6.7,2.19,13.2,1.73,19.6-0.03
		c6.41-1.77,12.66-4.14,19.1-5.78c6.91-1.75,13.24-0.86,17.78,5.48c1.4,1.96,2.62,4.05,3.88,6.11c4.53,7.39,8.82,14.94,13.67,22.1
		c2.14,3.15,5.23,5.77,8.22,8.21c9.67,7.9,20.76,8.89,32.33,5.64c6.7-1.88,12.9-5.04,18.63-9.12c6.98-4.96,14.57-7.25,23.29-5.52
		c6.49,1.29,11.79,4.08,15.66,9.48c4.16,5.8,8.14,11.75,12.56,17.34c5.22,6.6,11.31,11.81,20.74,9.25
		C1272.81,715.38,1273.38,715.55,1273.92,715.58z"/>
	<path class="st36" d="M1274.01,715.52c-0.63,0.03-1.2-0.15-1.69-0.02c-9.44,2.56-15.52-2.65-20.74-9.25
		c-4.42-5.59-8.4-11.54-12.56-17.34c-3.87-5.4-9.17-8.19-15.66-9.48c-8.72-1.73-16.31,0.56-23.29,5.52
		c-5.73,4.07-11.93,7.24-18.63,9.12c-11.57,3.25-22.66,2.26-32.33-5.64c-2.99-2.45-6.09-5.06-8.22-8.21
		c-4.86-7.17-9.14-14.72-13.67-22.1c-1.26-2.06-2.48-4.15-3.88-6.11c-4.54-6.34-10.87-7.24-17.78-5.48
		c-6.44,1.64-12.69,4.01-19.1,5.78c-6.4,1.76-12.9,2.22-19.73-0.13c-2.15-1.47-4.35-2.42-5.62-4.07c-1.86-2.42-3.07-5.35-4.52-8.25
		c-0.01-0.91-0.04-1.64-0.01-2.52c-0.04-0.44-0.14-0.72-0.25-0.99c-0.01,0.02,0.02,0,0.05-0.19c0.07-1.89,0.11-3.58,0.21-5.52
		c1.7-5.56,3.34-10.89,5.07-16.24c0.14-0.08,0.23-0.15,0.22-0.17c-0.06-0.11-0.14-0.2-0.15-0.47c0.11-0.4,0.16-0.64,0.21-0.87
		c2.63-4.51,5.25-9.02,7.89-13.53c0.53-0.9,1.1-1.78,1.86-2.95c2.19-3.24,4.17-6.2,6.29-9.28c0.84-0.96,1.54-1.81,2.22-2.68
		c-0.01-0.02-0.01,0.03,0.13,0.01c0.23-0.17,0.33-0.33,0.45-0.47c0.02,0,0.02-0.04,0.14-0.04c0.3-0.05,0.38-0.18,0.51-0.48
		c0.79-0.84,1.43-1.57,2.26-2.31c2.4-2,4.61-3.98,6.99-6.02c2.08-1.04,3.99-2.03,5.9-3.02c1.18-0.13,2.36-0.27,3.9-0.5
		c2.98,0.01,5.59,0.12,8.43,0.32c0.87,0.11,1.51,0.13,2.25,0.26c0.27,0.18,0.45,0.24,0.81,0.41c0.56,0.22,0.96,0.33,1.47,0.57
		c2.74,1.25,5.37,2.37,8,3.49c0.34,0.18,0.69,0.35,1.31,0.76c3.97,2.15,7.75,3.69,12.21,3.44c4.14-0.17,8.1-0.4,12.06-0.62
		c4.27,0.19,8.56,0.26,12.82,0.62c1.9,0.16,3.74,0.91,5.93,1.45c0.84,0.31,1.36,0.57,1.88,0.83c2.2,1.37,4.4,2.74,6.88,4.25
		c1.84,1.87,3.4,3.59,5.02,5.5c3.16,2.36,6.27,4.55,9.48,6.81c0.1,0.08,0.35,0.16,0.44,0.34c2.53,1.32,4.98,2.46,7.44,3.69
		c0.14,0.06,0.27,0.02,0.41,0c0.02,0.01,0.05-0.03,0.22,0.05c3.84,1.17,7.51,2.25,11.4,3.45c4.3,0.86,8.37,1.6,12.61,2.42
		c2.33,0.47,4.49,0.87,6.88,1.35c1.67,0.37,3.11,0.64,4.64,1.01c2.93,0.84,5.78,1.58,8.81,2.41c0.92,0.39,1.66,0.68,2.57,1.12
		c2.99,1.66,5.81,3.18,8.69,4.87c2.12,2.24,4.19,4.3,6.32,6.51c0.15,0.22,0.23,0.29,0.34,0.52c0.4,0.64,0.78,1.13,1.21,1.8
		c0.35,0.34,0.63,0.52,0.89,0.64c-0.03-0.04-0.11,0.02-0.16,0.14c-0.05,0.12,0.1,0.33,0.14,0.5c1.04,1.32,2.04,2.47,3.15,3.77
		c2.05,1.81,3.99,3.47,5.94,5.13c4.61,2.28,9.1,4.84,13.85,6.78c4.92,2,9.82,3.9,14.02,7.58c0.94,1.41,1.7,2.73,2.48,4.34
		c0.33,1.52,0.64,2.75,0.97,4.18c0.12,2.84,0.23,5.48,0.21,8.14c-0.17,0.09-0.28,0.17-0.27,0.2c0.06,0.14,0.15,0.26,0.2,0.56
		c-0.02,0.39-0.01,0.62,0,0.85c-0.23,1.09-0.47,2.17-0.78,3.69c-0.19,1-0.3,1.57-0.53,2.14c-0.17,0.06-0.22,0.1-0.28,0.15
		c0.09,0.1,0.18,0.2,0.18,0.52c-0.65,2.13-1.21,4.05-1.77,5.97c-0.31,0.62-0.63,1.25-0.9,2.09c-0.04,0.38-0.08,0.54-0.19,0.75
		c-0.23,0.26-0.34,0.48-0.56,0.85c-1.26,2.36-2.41,4.57-3.56,6.79c-1.69,2.54-3.37,5.07-5.14,7.81c-0.08,0.19-0.1,0.21-0.26,0.26
		c-2.16,2.32-4.14,4.59-6.3,6.91c-2.61,1.69-5.05,3.32-7.49,4.96C1274.6,715.11,1274.36,715.29,1274.01,715.52z"/>
	<path class="st37" d="M987.61,1022.31c-3.1,0.33-6.2,0.66-9.47,1.08c-6.44,0-12.4-1.39-18.23-4.24c-3.28-2.19-6.35-4.33-9.62-6.66
		c-0.27-0.35-0.4-0.43-0.58-0.42c-1.09-1.34-2.19-2.69-3.43-4.13c-1.79-2.81-3.43-5.52-5.24-8.52c-1.69-5.8-3.21-11.29-4.73-16.79
		c-0.34-7.14,0.27-14.19,1.91-21.49c0.06-0.32,0.07-0.59,0.2-0.74c2.03-4.95,3.9-9.76,5.86-14.53c0.76-1.85,1.74-3.6,2.74-5.56
		c0.93-1.33,1.74-2.51,2.71-3.77c1.88-2.75,3.6-5.42,5.4-8.15c0.08-0.07,0.16-0.28,0.31-0.31c0.24-0.19,0.35-0.35,0.57-0.6
		c0.3-0.34,0.48-0.58,0.83-0.91c2.3-2.84,4.44-5.6,6.68-8.53c1.59-2.06,3.08-3.96,4.73-5.95c1.09-1.49,2-2.89,2.92-4.28
		c0,0,0,0,0.16-0.04c0.3-0.33,0.45-0.61,0.75-1c0.97-1.28,1.78-2.45,2.74-3.72c1.96-2.57,3.77-5.05,5.74-7.62
		c1.9-2.55,3.65-5,5.54-7.46c0.23-0.33,0.33-0.65,0.55-1.12c1.66-2.27,3.2-4.39,4.89-6.6c2.08-2.7,4.01-5.31,6.09-8.02
		c1.16-1.6,2.15-3.1,3.32-4.66c0.73-0.82,1.28-1.57,2-2.44c1.93-2.55,3.7-4.98,5.64-7.5c0.91-1.17,1.65-2.25,2.39-3.34
		c0.97-1.41,1.94-2.83,3.08-4.36c1.1-1.25,2.03-2.38,3.11-3.62c1-1.31,1.85-2.51,2.86-3.81c1.82-2.19,3.47-4.3,5.28-6.49
		c1.21-1.27,2.26-2.45,3.49-3.69c2.55-1.67,3.93,0.61,5.64,1.38c9.1,4.1,18.17,8.26,27.23,12.44c5.36,2.47,10.7,4.97,16.01,7.54
		c1.92,0.93,3.71,2.13,5.51,3.39c-0.32,0.73-0.59,1.28-0.98,2.01c-1.46,3.4-2.81,6.62-4.22,9.97c-0.03,0.21,0,0.3-0.11,0.56
		c-1.35,3.07-2.57,5.97-3.99,9c-0.79,1.72-1.38,3.3-1.96,4.9c0.02,0.02,0-0.03-0.15,0.03c-0.27,0.35-0.39,0.64-0.68,1.06
		c-0.63,1.37-1.09,2.59-1.55,3.82c-4.24,9.75-8.48,19.5-12.86,29.62c-0.51,0.98-0.96,1.55-1.24,2.19
		c-2.37,5.48-4.71,10.97-7.06,16.46c-0.97,2.01-1.94,4.03-2.96,6.41c-0.11,0.6-0.17,0.84-0.31,1.18c-0.09,0.21-0.09,0.3-0.22,0.53
		c-0.38,0.71-0.64,1.27-0.9,1.83c-1.55,3.2-3.1,6.4-4.72,9.96c-0.13,0.58-0.19,0.81-0.25,1.03c-2.81,6.02-5.61,12.03-8.63,18.4
		c-2.03,4.08-3.83,7.82-5.66,11.54c-0.96,1.96-1.97,3.91-2.96,5.86c-4.02,5.04-8.03,10.07-12.28,15.36
		c-2.22,2.12-4.2,3.99-6.19,5.86c-2.57,1.36-5.15,2.72-7.99,4.25c-0.57,0.33-0.87,0.49-1.27,0.64c-0.23,0.03-0.32,0.11-0.55,0.27
		c-1.9,0.76-3.62,1.5-5.46,2.21C987.81,1022.06,987.69,1022.16,987.61,1022.31z"/>
	<path class="st38" d="M1056.56,640.03c1.48,2.71,2.69,5.65,4.55,8.07c1.27,1.66,3.47,2.6,5.37,4.03
		c-1.85,3.62-3.74,7.14-5.81,10.54c-4.02,6.6-8.08,13.17-12.22,19.69c-6.18,9.74-12.45,19.42-18.67,29.14
		c-3,4.69-5.97,9.41-9.18,14.01c-0.49-2.84-0.74-5.58-1.01-8.31c-0.49-5.01-0.98-10.01-1.48-15.24c0.38-1.09,0.67-2.01,1.15-2.82
		c2.23-3.7,4.52-7.38,6.95-11.15c3.52-5.52,6.88-10.96,10.23-16.4c2.47-3.86,4.94-7.72,7.41-11.58c1.05-1.64,2.09-3.28,3.19-5.3
		c0.48-0.95,0.94-1.5,1.33-2.09C1051.11,648.43,1053.83,644.23,1056.56,640.03z"/>
	<path class="st39" d="M1165.61,889.44c-1.33,0.12-2.66,0.24-4.34,0.32c-0.63,0.03-0.91,0.11-1.18,0.19c0,0,0.02,0.02-0.22-0.06
		c-1.69-0.27-3.13-0.46-4.58-0.65c-1.88-0.71-3.76-1.43-5.96-2.36c-2.92-1.34-5.52-2.47-8.11-3.59c-0.35-0.18-0.71-0.35-1.33-0.74
		c-3.38-1.64-6.49-3.07-9.79-4.6c-1.39-0.62-2.59-1.14-3.91-1.8c-2.06-0.94-3.99-1.74-5.92-2.54c-5.82-2.74-11.64-5.47-17.8-8.4
		c-2.28-1.03-4.22-1.87-6.16-2.72c-0.97-0.45-1.95-0.89-3.25-1.55c-3.48-1.49-6.63-2.77-9.78-4.05c-1.85-1.08-3.64-2.27-5.56-3.21
		c-5.31-2.58-10.65-5.07-16.01-7.54c-9.06-4.18-18.13-8.34-27.23-12.44c-1.71-0.77-3.09-3.05-5.61-1.58
		c-0.32-0.58-0.35-1.27-0.64-1.41c-4.07-1.85-8.17-3.63-12.39-5.58c-3.78-1.89-7.42-3.68-11.11-5.35c-2.87-1.3-5.82-2.43-8.87-3.8
		c-1.72-0.81-3.31-1.47-4.88-2.14c0.01-0.02-0.03,0-0.08-0.13c-0.31-0.25-0.58-0.36-0.98-0.62c-0.9-0.45-1.65-0.75-2.49-1.24
		c-1.13-0.67-2.16-1.18-3.23-1.61c-2.23-0.88-4.48-1.72-6.84-2.61c-0.12-0.04-0.37-0.06-0.51-0.21c-1.83-1.17-3.51-2.2-5.13-3.42
		c0.72-1.23,1.38-2.26,2.03-3.3c2.98-4.76,5.95-9.53,8.95-14.29c2.5-3.96,5.03-7.9,7.72-11.81c0.75,0.21,1.36,0.32,1.9,0.58
		c11.37,5.46,22.72,10.96,34.09,16.42c10.1,4.85,20.21,9.67,30.32,14.48c6.67,3.17,13.36,6.31,20.16,9.63
		c0.63,0.33,1.16,0.46,1.64,0.69c6.43,3.13,12.83,6.31,19.27,9.42c6.38,3.08,12.77,6.15,19.19,9.14c3.67,1.71,7.41,3.25,11.2,5.01
		c2.27,1.22,4.44,2.34,6.65,3.39c7.05,3.37,14.11,6.71,21.17,10.06c4.16,1.97,8.34,3.9,12.46,5.93c5.8,2.86,11.56,5.81,17.33,8.73
		c-2.09,3.37-4.17,6.73-6.33,10.27c-0.07,0.17-0.07,0.27-0.16,0.35c-0.23,0.22-0.27,0.37-0.23,0.56c-1.95,2.02-3.89,4.03-6.1,6.25
		C1170.35,886.95,1167.98,888.2,1165.61,889.44z"/>
	<path class="st40" d="M1185.95,867.96c-5.94-2.81-11.69-5.76-17.49-8.62c-4.12-2.04-8.3-3.96-12.46-5.93
		c-7.06-3.35-14.12-6.7-21.17-10.06c-2.21-1.05-4.38-2.17-6.53-3.57c1.22-2.86,2.56-5.35,3.56-7.97c2.96-7.8,5.76-15.66,8.68-23.47
		c2.06-5.51,4.23-10.99,6.35-16.49c10.95,5.6,21.93,11.15,32.84,16.81c8.57,4.44,17.06,9.02,25.61,13.51
		c1.72,0.91,3.51,1.7,5.44,2.76c0.08,0.57-0.02,0.94-0.12,1.3c0,0-0.23-0.02-0.45-0.01c-0.26,0.05-0.36,0.12-0.35,0.14
		c0.05,0.11,0.13,0.21,0.2,0.31c-0.03,0.09-0.06,0.17-0.12,0.39c-1.71,2.91-3.39,5.69-5.3,8.77c-1.76,2.81-3.27,5.32-4.79,7.83
		c-0.07,0.24-0.13,0.47-0.36,1.05c-1.61,3.01-3.07,5.67-4.52,8.34c-1.35,2.14-2.7,4.27-4.16,6.79c-0.41,0.91-0.7,1.45-1,1.99
		C1188.58,863.83,1187.34,865.84,1185.95,867.96z"/>
	<path class="st34" d="M1179.18,879.19c-0.15-0.13-0.11-0.29,0.15-0.46C1179.48,878.86,1179.42,879.01,1179.18,879.19z"/>
	<path class="st34" d="M949.75,1012.18c0.14-0.12,0.27-0.04,0.36,0.25C949.98,1012.5,949.87,1012.41,949.75,1012.18z"/>
	<path class="st34" d="M988.09,1022.04c0.12,0.02,0.06,0.23,0.02,0.33c-0.04,0.1-0.27,0.02-0.39-0.02
		C987.69,1022.16,987.81,1022.06,988.09,1022.04z"/>
	<path class="st34" d="M1303.09,660.52c-0.17,0.55-0.39,0.93-0.71,1.45c-0.41-1.09-0.72-2.32-0.96-3.69
		C1302.01,658.88,1302.53,659.62,1303.09,660.52z"/>
	<path class="st40" d="M1076.75,815.54c-6.68-3.15-13.36-6.29-20.03-9.47c-10.11-4.81-20.23-9.63-30.32-14.48
		c-11.37-5.46-22.72-10.95-34.09-16.42c-0.54-0.26-1.15-0.36-1.9-0.74c-0.14-0.42-0.11-0.63,0.1-0.9c2.69-3.93,5.24-7.78,7.7-11.69
		c7.1-11.31,14.15-22.66,21.28-33.96c0.31-0.5,1.24-0.61,1.88-0.9c7.2,3.64,14.42,7.22,21.59,10.92
		c6.84,3.53,13.61,7.21,20.43,10.77c8.06,4.21,16.16,8.35,24.23,12.54c0.71,0.37,1.33,0.88,2.08,1.71
		C1085.44,780.72,1081.09,798.13,1076.75,815.54z"/>
	<path class="st41" d="M1076.87,815.7c4.22-17.57,8.57-34.98,12.97-52.63c3.48,1.37,6.94,2.89,10.31,4.6
		c9.37,4.75,18.71,9.58,28.06,14.39c6.13,3.16,12.25,6.36,18.53,9.66c-1.97,5.62-4.13,11.1-6.19,16.61
		c-2.92,7.81-5.72,15.67-8.68,23.47c-0.99,2.62-2.33,5.1-3.63,7.83c-3.83-1.44-7.57-2.98-11.24-4.69
		c-6.42-2.99-12.81-6.06-19.19-9.14c-6.44-3.11-12.84-6.28-19.27-9.42C1078.03,816.16,1077.51,816.03,1076.87,815.7z"/>
	<path class="st42" d="M1021.3,726.85c-0.57,0.43-1.5,0.54-1.81,1.04c-7.13,11.3-14.18,22.64-21.28,33.96
		c-2.45,3.91-5,7.75-7.69,11.52c-0.61-4.14-0.95-8.17-1.49-12.18c-0.48-3.58-1.18-7.14-1.79-10.71c0.71-1.22,1.42-2.43,2.33-3.98
		c1.84-2.95,3.48-5.57,5.12-8.19c1.35-2.14,2.71-4.28,4.17-6.75c0.19-0.51,0.28-0.69,0.37-0.88c1.89-2.97,3.78-5.94,5.89-9.21
		c1.78-2.83,3.34-5.36,4.96-7.96c0.06-0.07,0.11-0.24,0.22-0.31c0.2-0.23,0.29-0.38,0.47-0.66c0.11-0.33,0.13-0.54,0.27-0.81
		c0.21-0.21,0.3-0.37,0.5-0.68c1.46-2.31,2.81-4.46,4.29-6.74c0.85-0.8,1.57-1.47,2.28-2.14c0.49,5.01,0.99,10.01,1.48,15.02
		c0.27,2.73,0.52,5.47,0.84,8.39C1020.74,726.09,1020.98,726.4,1021.3,726.85z"/>
	<path class="st34" d="M1259.19,741.33c0.3,0.01,0.41,0.14,0.52,0.43c-0.22,0.25-0.48,0.37-0.88,0.48
		C1258.81,741.95,1258.93,741.68,1259.19,741.33z"/>
	<path class="st34" d="M1301.14,677.89c0.27,0.11,0.44,0.23,0.6,0.35c-0.13,0.05-0.26,0.11-0.5,0.13c-0.2-0.13-0.29-0.23-0.38-0.33
		C1300.91,677.99,1300.97,677.94,1301.14,677.89z"/>
	<path class="st34" d="M1061.67,614.39c-0.12-0.12-0.15-0.27-0.09-0.45c0.17,0.07,0.25,0.17,0.31,0.27
		C1061.9,614.23,1061.8,614.31,1061.67,614.39z"/>
	<path class="st34" d="M1056.57,637.32c-0.14-0.13-0.23-0.42-0.27-0.85C1056.44,636.6,1056.53,636.89,1056.57,637.32z"/>
	<path class="st34" d="M1298.18,687.36c0.03,0.17-0.06,0.37-0.3,0.63C1297.84,687.84,1297.95,687.62,1298.18,687.36z"/>
	<path class="st34" d="M1302.51,670.44c0.1,0.08,0.08,0.18,0.01,0.44c-0.13,0.02-0.22-0.1-0.28-0.24
		C1302.23,670.61,1302.34,670.53,1302.51,670.44z"/>
	<path class="st34" d="M1080.93,583.93c-0.05-0.13,0.04-0.22,0.26-0.33C1081.31,583.75,1081.23,583.87,1080.93,583.93z"/>
	<path class="st34" d="M1080.34,584.44c-0.09-0.16,0.02-0.29,0.3-0.43C1080.67,584.12,1080.57,584.27,1080.34,584.44z"/>
	<path class="st34" d="M1210.1,826.55c-0.1,0.01-0.18-0.09-0.23-0.2c-0.01-0.02,0.09-0.08,0.23-0.14
		C1210.19,826.2,1210.13,826.43,1210.1,826.55z"/>
	<path class="st34" d="M968.25,912.1c-0.18-0.55-0.19-1.2-0.25-2.04c0.9-0.89,1.85-1.59,2.99-2.26
		C970.26,909.22,969.34,910.61,968.25,912.1z"/>
	<path class="st34" d="M986.1,887.98c-0.05-0.33,0.04-0.67,0.27-0.99C986.43,887.33,986.33,887.65,986.1,887.98z"/>
	<path class="st34" d="M1071.82,883.54c0.02,0.22-0.1,0.51-0.37,0.86C1071.42,884.18,1071.55,883.89,1071.82,883.54z"/>
	<path class="st34" d="M971.33,907.78c-0.01-0.23,0.14-0.51,0.44-0.84C971.78,907.18,971.64,907.46,971.33,907.78z"/>
	<path class="st34" d="M994.1,1019.56c0.03,0.11-0.07,0.18-0.28,0.23C993.78,1019.67,993.87,1019.58,994.1,1019.56z"/>
	<path class="st34" d="M1078.02,869.05c0.22-0.01,0.25,0.13,0.09,0.34C1078.02,869.35,1077.99,869.26,1078.02,869.05z"/>
	<path class="st34" d="M955.44,928.09c-0.03-0.12,0.07-0.27,0.31-0.46C955.79,927.74,955.68,927.9,955.44,928.09z"/>
	<path class="st34" d="M1045.16,944.29c0.13,0,0.18,0.1,0.21,0.22c0.01,0.03-0.08,0.08-0.22,0.15
		C1045.07,944.59,1045.07,944.5,1045.16,944.29z"/>
	<path class="st43" d="M973.76,771.7c0.83-1.34,1.65-2.69,2.51-4.24c0.03-0.21,0.07-0.21,0.16-0.25c0.24-0.11,0.31-0.22,0.3-0.39
		c0.72-1.17,1.44-2.33,2.21-3.7c2.12-3.27,4.2-6.32,6.26-9.4c0.64-0.95,1.21-1.94,1.92-3.09c0.7,3.39,1.4,6.95,1.89,10.53
		c0.54,4.01,0.88,8.05,1.31,12.24c-0.03,0.38-0.06,0.6-0.09,0.97c-2.52,4.11-5.05,8.05-7.55,12.01c-3,4.75-5.97,9.52-8.95,14.29
		c-0.65,1.04-1.31,2.07-2.18,3.2c-0.62-0.88-1.02-1.86-1.44-3.03c-0.71-2.43-1.4-4.67-2.11-7.11c-0.8-3.32-1.58-6.45-2.2-9.66
		c1.08-1.64,1.99-3.2,3.05-4.9C970.58,776.62,972.17,774.16,973.76,771.7z"/>
	<path class="st34" d="M976.65,766.87c0.1,0.12,0.03,0.24-0.22,0.33C976.36,767.09,976.44,766.99,976.65,766.87z"/>
	<path class="st34" d="M1160.23,890c0.13-0.12,0.41-0.2,0.83-0.22C1160.93,889.91,1160.65,889.97,1160.23,890z"/>
	<path class="st34" d="M990.88,813.71c-0.2,0.02-0.45-0.1-0.77-0.35C990.3,813.35,990.56,813.46,990.88,813.71z"/>
</g>
<g>
	<g>
		<path class="st44" d="M741.08,225.47c-9.46-3.19-18.63,1.26-22.98,10.11c-1.63,3.31-2.59,19.75,4.86,16.71
			c15.27-6.22,30.54-12.43,45.81-18.65c5.92-2.41,4.99-21.53-2.66-19.29c-16.71,4.9-31.44,14.76-42.63,28.08
			c-2.7,3.21-2.93,8.61-2.05,12.49c0.55,2.4,2.41,7.65,5.9,5.79c19.05-10.2,40.21-14.59,61.75-12.96c0-6.67,0-13.33,0-20
			c-25.07,5.91-50.14,11.82-75.21,17.72c0.84,6.21,1.68,12.42,2.52,18.63c4.75-4.88,9.5-9.77,14.25-14.65
			c3.66-3.76,4.12-17.55-2.52-18.63c-3.69-0.6-7.38-1.21-11.07-1.81c0.44,6.55,0.89,13.1,1.33,19.64
			c26.03-16.4,55.81-25.85,86.51-27.72c29.9-1.82,62.71,2.82,89.2,17.51c10.7,5.93,27.92,19.81,21.07,33.96
			c1.62-0.86,3.24-1.71,4.86-2.57c-64.34-25.7-135.21-33.31-203.49-21.42c-7.22,1.26-6.29,21.1,0,20
			c67.34-11.72,137.34-4.65,200.83,20.71c2.25,0.9,3.9-0.58,4.86-2.57c7.9-16.31,4.99-36.69-5.78-51.02
			c-10.63-14.15-28.21-21.46-44.6-26.52c-33.06-10.21-68.62-11.11-102.16-2.59c-19.1,4.85-37.28,12.44-53.97,22.95
			c-4.98,3.14-5.74,18.49,1.33,19.64c3.69,0.6,7.38,1.21,11.07,1.81c-0.84-6.21-1.68-12.42-2.52-18.63
			c-4.75,4.88-9.5,9.77-14.25,14.65c-2.55,2.62-2.77,7.94-2.3,11.29c0.27,1.93,1.78,8.06,4.82,7.34
			c25.07-5.91,50.14-11.82,75.21-17.72c6.61-1.56,7.33-19.45,0-20c-22.31-1.68-44.69,3.12-64.41,13.68
			c1.28,6.09,2.57,12.18,3.85,18.28c10.59-12.61,24.46-21.43,40.24-26.07c-0.89-6.43-1.77-12.86-2.66-19.29
			c-15.27,6.22-30.54,12.43-45.81,18.65c1.62,5.57,3.24,11.14,4.86,16.71c2.28-4.62,8.49-6.57,13.25-4.96
			C745.85,247.26,747.23,227.55,741.08,225.47L741.08,225.47z"/>
	</g>
</g>
<g>
	<g>
		<path class="st44" d="M729.55,256.53c37.95-15.02,78.71-21.39,119.43-18.56c6.75,0.47,7.06-19.08,0-20
			c-23.22-3.04-46.63-1.72-69.38,3.86c0.44,6.55,0.89,13.1,1.33,19.64c35.84-14.04,76.28-10.37,109.48,8.85c0-6.43,0-12.86,0-19.29
			c-30.1,13.9-63.95,16.79-95.99,8.22c0.44,6.55,0.89,13.1,1.33,19.64c29.52-11.77,62.59-13.47,93.08-4.34
			c0.44-6.55,0.89-13.1,1.33-19.64c-23.59,1.62-47.18,3.24-70.77,4.86c0.44,6.55,0.89,13.1,1.33,19.64
			c27.71-8.81,57.82-3.67,81.9,12.23c-0.4-6.09-0.8-12.18-1.19-18.28c-1.76,2.32-4.49,3.26-7.35,2.37
			c-2.05-0.63-3.08-3.46-2.73-0.23c0.38,3.52-0.09,1.16,1.18,0.56c2.17-1.02,3.47-2.08,6.03-1.12c2.13,0.8,3.59,2.63,4.92,4.38
			c6.45,8.52,9.85,21.18,21.7,23.55c6.15,1.23,6.75-17.69,1.33-19.64c-4.02-1.45-8.22-4.65-8.03-9.3c-2.11,3.21-4.22,6.43-6.33,9.64
			c3.44,1.79,6.69,4.91,6.59,9.03c2.11-3.21,4.22-6.43,6.33-9.64c-5.33-1.89-10.66-3.79-15.99-5.68c-7.35-2.61-8.81,17.1-2.66,19.29
			c5.33,1.89,10.66,3.79,15.99,5.68c5.1,1.81,6.25-6.47,6.33-9.64c0.27-10.84-3.78-23.02-13.93-28.31
			c-4.93-2.57-6.23,7.19-6.33,9.64c-0.43,10.97,4.13,24.54,15.37,28.59c0.44-6.55,0.89-13.1,1.33-19.64
			c-6.61-1.32-10.03-10.49-13.15-15.55c-3.78-6.11-9.34-14.17-17.69-12.59c-12.12,2.29-14.58,20.37-11.5,29.92
			c3.37,10.45,16.08,15.95,23.63,5.98c3.36-4.43,4.06-14.81-1.19-18.28c-25.86-17.08-57.7-21.62-87.22-12.23
			c-5.47,1.74-5.15,20.09,1.33,19.64c23.59-1.62,47.18-3.24,70.77-4.86c6.47-0.44,7-17.95,1.33-19.64
			c-32.57-9.76-66.8-8.26-98.4,4.34c-6.14,2.45-4.75,18.02,1.33,19.64c32.92,8.8,67.76,5.33,98.64-8.94
			c5.55-2.56,4.88-16.46,0-19.29c-34.94-20.22-77.19-23.58-114.8-8.85c-5.47,2.14-4.58,21.09,1.33,19.64
			c22.75-5.58,46.16-6.9,69.38-3.86c0-6.67,0-13.33,0-20c-41.62-2.89-83.32,3.93-122.09,19.27
			C720.81,239.65,722.33,259.39,729.55,256.53L729.55,256.53z"/>
	</g>
</g>
<g>
	<path d="M601.86,318.51c0.71-22.53,9.63-41.48,22.04-58.9c10.79-15.13,23.76-28.28,38.23-39.5c20.86-16.17,43.31-29.71,67.63-39.64
		c1.63-0.67,3.18-1.54,5.29-2.58c-1.68-2.89-3.22-5.72-4.92-8.44c-3.79-6.04-3.03-14.4,1.76-19.64c3.53-3.86,6.67-8.14,12.29-9.02
		c4.91-0.77,9.07,1.32,11.1,5.95c1.76,4.03,2.61,8.33,3.25,12.67c0.44,2.96,1.04,5.84,2.5,8.72c1.25-0.3,2.54-0.5,3.77-0.92
		c21.72-7.38,43.98-11.86,66.77-12.58c30.41-0.96,59.23,4.83,83.9,24.34c23.13,18.29,35.56,42.76,35.91,73.21
		c0.14,11.96-2.53,23.44-9.41,33.59c-7.93,11.69-19.14,15.55-32.17,14.9c-3.34-0.17-4.89,0.79-6.22,3.98
		c-4.36,10.47-15.85,16-26.35,12.49c-21.24-7.1-42.59-13.81-64.31-19.17c-34.09-8.41-68.38-12.93-103.28-3.68
		c-18.74,4.97-35.46,13.98-51.45,25.12c-9.6,6.69-20.04,12.05-30.11,18.01c-2.84,1.68-5.89,2.66-9.13,3.12
		c-6.3,0.9-11.16-1.7-13.98-7.58C602.85,328.56,602.24,323.78,601.86,318.51z M881.71,266.71c9.41,4.58,18.93,8.74,29.56,9.36
		c8.79,0.51,17.86-10.52,14.84-18.5c-1.71-4.52-4.07-8.83-8.36-11.33c-10.1-5.9-18.09-14.7-27.71-21.29
		c-10.5-7.2-21.61-12.53-34.17-14.36c-15.31-2.23-30.73-1.55-46.02-0.25c-19.98,1.7-40.1,1.06-59.97,4.4
		c-3.16,0.53-7.22-0.1-8.97,2.86c-2.96,5.02-7.41,7.08-12.19,9.09c-1.93,0.81-3.55,2.23-4.73,4.01c-1.79,2.68-4.12,4.71-6.58,6.68
		c-4.42,3.55-6.8,12.01-4.97,17.28c1.5,4.34,5.67,6.11,13.01,5.63c2.07-0.14,4.03-0.6,6-1.26c7.25-2.44,14.43-5.07,21.84-7.02
		c20.69-5.44,41.51-7.28,62.74-4.8C838.81,249.86,860.16,257.27,881.71,266.71z"/>
</g>
<g>
	<path class="st45" d="M213.53,683.28c13.87-18.36,31.91-31.74,52.98-41.85c33.14-15.89,67.5-18.6,102.93-12.79
		c21.83,3.58,41.6,11.89,61.19,21.15c20.27,9.58,39.47,20.57,55.27,35.85c11.43,11.05,21.52,23.41,31.58,35.66
		c16.95,20.64,29.66,43.84,40.66,67.8c8.37,18.23,15.59,36.89,15.38,57.71c-0.27,26.39-13.37,43.92-38.26,55.05
		c-8.66,3.87-17.35,8.76-24.28,14.97c-10.89,9.75-12.36,22.71-5.5,35.03c6.92,12.43,12.33,25.21,11.26,39.76
		c-0.92,12.57-6.58,23.21-16.57,31.69c-1.58,1.34-4,1.79-7.08,2.86c-7.36,2.39-13.55,5.14-20.02,6.6
		c-8.96,2.02-18.13,3.07-27.64,4.31c-12.3-1.2-24.36-1.31-36-3.32c-30.66-5.29-58.86-16.91-85.64-31.31
		c-27.54-14.81-52.99-32.46-76.31-52.87c-26.53-23.22-46.55-50.58-57.88-83.46c-8.65-25.07-13.24-50.96-12.39-78.18
		c2.76-17.2,5.44-33.93,8.41-50.98c5.19-11.48,10.08-22.63,15.38-33.97C205.44,696.3,209.48,689.79,213.53,683.28z M489.15,830.56
		c0.63,0.48,1.27,0.96,2.32,2.03c0.87,0.44,1.74,0.88,3.16,1.99c1.63,0.55,3.26,1.1,4.92,1.75c0,0,0.09-0.07,0.73,0.51
		c1.74,0.34,3.48,0.67,6.15,1.5c1.6-0.04,3.24,0.17,4.79-0.15c6.8-1.37,14.13-1.73,19.09-8.56c15.75-13.78,13.23-34.53-0.91-44.5
		c-8.81-6.22-18.78-8.2-29.21-4.08c-10.8,4.27-18.79,11.34-20.28,24.05c-2,8.85,0.05,16.5,6.9,22.68c0,0-0.04-0.1,0.21,0.68
		c0.64,0.47,1.28,0.95,1.95,1.31C488.96,829.78,488.84,829.81,489.15,830.56z M234.73,895.16c3.02,4.6,7.14,7.22,13.87,7.08
		c2.12,0.49,4.45,1.8,6.32,1.31c7.17-1.86,14.28-4.07,21.26-6.58c6.56-2.36,12.48-13.17,12.21-20.11
		c4.76-6.84,3.66-12.93-4.02-21.72c-1.21-2.16-2.08-4.59-3.69-6.43c-6.79-7.79-15.72-10.53-27.51-8.54c-3.91,1.5-7.81,3-12.86,4.81
		c-13.14,2.12-18.74,20.2-17.03,28.39c0.14,0.65,1.23,1.09,2.2,2.68c0.35,1.79,0.69,3.57,0.16,5.78
		C225.06,888.28,229.37,891.52,234.73,895.16z M255.37,761.2c-4.05-3.05-7.71-6.83-12.24-9.01c-11.62-5.59-30.67-1.34-36.82,9.52
		c-1.88,2.26-3.77,4.51-6.58,7.13c-4.89,8.38-3.71,16.71,0.03,24.77c0.93,2,3.46,3.28,5.98,5.46c5.37,9.26,14.58,11.27,25.45,12.04
		c3.12-0.55,6.3-0.87,9.34-1.69c12.98-3.52,22.26-15.79,20.82-28.67C259.49,774.5,257.62,768.25,255.37,761.2z M290.04,924.21
		c0,0,0.09,0-0.6,0.72c-4.29,20.51,9.05,37.84,30.9,36.83c8.07-0.37,17.21-1.95,21.9-11.69c9.91-9.95,10.45-21.01,4.94-32.64
		c-4.47-9.44-15.2-15.55-28.41-14.97c-11.98,0.53-20.16,6.31-27.09,16.06C291.16,920.43,290.64,922.34,290.04,924.21z
		 M468.16,968.12c-0.26-3.46-0.07-7.04-0.86-10.37c-3.42-14.36-13.41-23.91-26.34-30.6c-11.25-5.82-23.78-8.01-36.54-4.84
		c-6.14,1.52-13.78,2.68-15.42,11.62c-1.98,1.4-4.5,2.45-5.83,4.27c-4.34,5.94-4.81,12.46-3.59,19.45
		c3.31,19.01,24.34,35.26,43.98,37.64c15.26,1.85,29.5,0.14,39.8-14.44C464.76,976.91,466.18,972.95,468.16,968.12z M338.83,687.78
		c-0.31,0.76-0.95,1.56-0.87,2.27c1.75,14.19,16.76,26.04,31.71,24.19c5.06-0.62,11.65,0.23,15.55-6.48
		c8.25-4.24,13.77-10.03,13.55-20.1c2.51-4.53-0.33-16.35-4.31-21.04c-9.33-11.04-21.66-12.99-35.46-10.05
		c-2.25,0.48-3.97,3.47-6.96,5.65C342.39,666.08,337.8,676.93,338.83,687.78z M473.61,752.01c10.36-12.64,5.76-31.38-2.57-38.46
		c-15.14-12.88-31.67-10-43.78,0.97c-3.87,3.51-8.47,7.87-8.09,14.55c-3.61,9.13-0.84,17.02,4.77,24.2
		C435.83,768.47,462.95,767.94,473.61,752.01z M286.6,725.94c3.71-2.76,8.24-4.95,10.98-8.41c6.94-8.75,9.01-18.31,5.33-29.09
		c-5.26-15.45-23.44-23.27-40.71-16.68c-15.43,5.89-24.38,24.94-17.82,38.43c1.28,2.63,3.71,4.71,5.75,7.99
		c6.21,3.39,12.05,7.89,18.76,9.8C273.92,729.41,280.68,732.33,286.6,725.94z"/>
	<path class="st45" d="M177.12,788.43c-0.75,26.74,3.84,52.63,12.48,77.7c11.34,32.87,31.36,60.23,57.88,83.46
		c23.32,20.41,48.77,38.06,76.31,52.87c26.78,14.4,54.99,26.01,85.64,31.31c11.64,2.01,23.7,2.12,35.76,3.8
		c-6.9,1.08-13.98,1.55-21.07,1.78c-5.09,0.17-10.18,0.02-15.28,0.02c-19.84-1.95-38.23-8.34-56.25-15.69
		c-43.76-17.85-82.42-42.94-116.48-74.28c-15.38-14.15-29.04-29.77-38.64-49.3c-3.96-11.14-7.81-21.31-11.83-31.42
		c-0.28-0.71-1.76-0.96-2.68-1.42c-0.25-0.55-0.5-1.11-0.55-2.6c-2.22-12.25-4.63-23.55-6.75-35.31
		c-0.88-5.77-2.05-11.08-3.21-16.39c-0.15-0.6-0.31-1.2-0.03-2.49c0.13-3.69-0.16-6.68-0.45-9.67c-0.1-0.75-0.21-1.51,0.32-2.92
		c0.46-2.3,0.29-3.92,0.12-5.55c0,0-0.2-0.58,0.17-1.17C174.34,789.83,175.73,789.13,177.12,788.43z"/>
	<path class="st45" d="M177.21,787.95c-1.48,1.18-2.87,1.88-4.63,2.87c-0.29-17.03,2.44-33.99,9.17-51.18
		c1.51-1.26,2.54-1.8,3.57-2.33C182.65,754.02,179.97,770.75,177.21,787.95z"/>
	<path class="st45" d="M185.61,736.97c-1.33,0.87-2.36,1.4-3.72,2.22c2.41-6.78,4.9-13.94,7.99-20.86c2.2-4.95,5.21-9.58,8.76-14.68
		c1.25-0.36,1.6-0.41,1.94-0.45C195.69,714.34,190.8,725.49,185.61,736.97z"/>
	<path class="st45" d="M183.02,867.83c0.87-0.13,2.35,0.12,2.63,0.83c4.01,10.11,7.86,20.29,11.68,30.92
		C192.52,889.51,187.79,878.97,183.02,867.83z"/>
	<path class="st45" d="M201,703c-0.75,0.24-1.1,0.28-1.96,0.39c4.19-6.55,8.89-13.17,14.04-19.95
		C209.48,689.79,205.44,696.3,201,703z"/>
	<path class="st45" d="M175.37,829.79c2.41,11.3,4.83,22.61,6.99,34.4c-2.88-10.67-5.52-21.82-7.87-33.61
		C174.77,829.95,175.37,829.79,175.37,829.79z"/>
	<path class="st45" d="M175.66,829.33c-0.29,0.46-0.9,0.61-1.2,0.69c-1-5.33-1.69-10.74-2.2-16.61
		C173.62,818.25,174.79,823.56,175.66,829.33z"/>
	<path class="st45" d="M171.8,801.22c0.45,2.55,0.75,5.54,0.64,8.76C171.91,807.36,171.78,804.51,171.8,801.22z"/>
	<path class="st45" d="M172.21,792.73c0.36,1.19,0.53,2.82,0.32,4.8C172.1,796.31,172.06,794.74,172.21,792.73z"/>
	<path class="st45" d="M249.99,717.25c-1.9-2.34-4.34-4.43-5.61-7.05c-6.56-13.49,2.39-32.55,17.82-38.43
		c17.28-6.59,35.45,1.23,40.71,16.68c3.67,10.78,1.61,20.34-5.33,29.09c-2.74,3.46-7.27,5.64-11.31,8.14c0.24-1,0.8-1.73,1.52-2.6
		c0.06-0.04-0.03,0.05-0.7,0.26c-12.06,2.72-22.73,2.15-31.83-5.77C254.25,716.69,251.78,717.32,249.99,717.25z"/>
	<path class="st45" d="M480.76,804.55c0.65-12.15,8.63-19.22,19.43-23.49c10.42-4.12,20.4-2.14,29.21,4.08
		c14.14,9.98,16.65,30.73-0.07,44.66c-5.77,1.49-10.5,3.39-15.38,4.02c-4.96,0.64-10.05,0.02-15.1-0.03
		c-0.01,0.02,0.01,0.02-0.08-0.29c-0.08-0.31-0.34-0.91-0.53-1.32c-4.07-2.76-7.95-5.11-12.06-7.94
		C484.23,817.35,482.49,810.95,480.76,804.55z"/>
	<path class="st45" d="M420.08,728.72c-1.27-6.32,3.32-10.68,7.19-14.19c12.11-10.97,28.63-13.85,43.78-0.97
		c8.32,7.08,12.92,25.81,1.57,38.77c-8.16,4.37-15.21,8.94-24.02,7.83C430.52,757.88,421.48,747.83,420.08,728.72z"/>
	<path class="st45" d="M397.82,688.15c1.17,9.59-4.34,15.38-13.59,19.98c-10.5,4.88-19.36,2.03-28.03-1.37
		c-9.12-3.57-12.69-11.65-16.42-19.52c-1.99-10.31,2.59-21.16,13.39-25.32c14.83-5.49,27.39-3.28,36.57,6.8
		C394.26,673.68,395.24,681.58,397.82,688.15z"/>
	<path class="st45" d="M200.66,768.48c1.88-2.26,3.77-4.51,6.51-7.19c3.95-2.12,7.04-3.81,10.71-5.65
		c9.31-3.76,17.39-0.43,25.62,1.3c0-0.02-0.03,0,0.26,0.36c9.49,6.42,13.59,15.39,15.66,26c-3.56,6.48-3.06,14.87-11.55,17.88
		c-0.75,0.36-1.41,0.96-2.04,1.51c0.03-0.05,0.14-0.01-0.48,0.12c-19.04,6.31-33.88,0.47-41.27-13.51
		c-2.03-3.85-2.86-8.3-4.15-12.94C200.22,773.42,200.44,770.95,200.66,768.48z"/>
	<path class="st45" d="M431.36,932.58c-1.24-0.34-2.48-0.68-4.17-1.73c-4.01-1.25-7.57-1.8-11.13-2.35
		c-8.72,1.41-17.45,2.83-26.68,4.42c1.26-7.92,8.89-9.08,15.03-10.6c12.77-3.17,25.29-0.97,36.54,4.84
		c12.93,6.68,22.92,16.23,26.34,30.6c0.79,3.33,0.6,6.91,0.1,10.56c-1.46-1.61-1.86-3.59-2.9-5.18c-3.08-4.72-6.42-9.3-9.65-13.93
		c0,0-0.24-0.24-0.29-0.88c-0.74-1.21-1.43-1.77-2.12-2.33c0,0,0.09-0.09-0.06-0.34c-0.6-0.4-1.05-0.54-1.5-0.69
		c0,0,0.12-0.07-0.01-0.51c-2.18-3.66-3.29-8.07-8.98-6.67c0,0,0.02-0.01-0.14-0.4c-1.16-0.73-2.17-1.08-3.17-1.43
		c0,0-0.32-0.21-0.6-0.81c-0.91-0.74-1.53-0.88-2.16-1.02c-0.64-0.07-1.27-0.15-2.38-0.76C432.43,932.74,431.9,932.66,431.36,932.58
		z"/>
	<path class="st45" d="M419.63,728.9c1.85,18.93,10.89,28.98,28.97,31.26c8.81,1.11,15.87-3.46,23.59-7.64
		c-9.25,15.41-36.36,15.95-48.24,0.75C418.34,746.1,415.57,738.21,419.63,728.9z"/>
	<path class="st45" d="M289.79,924.57c1.36,4.93,1.37,10.67,3.57,15.44c7.66,16.65,27.19,21.98,44.19,12.68
		c1-0.55,2.08-0.97,3.67-1.66c-3.67,8.78-12.81,10.35-20.88,10.73C298.49,962.77,285.15,945.44,289.79,924.57z"/>
	<path class="st45" d="M199.83,776.81c1.38,4.17,2.21,8.63,4.24,12.48c7.39,13.98,22.23,19.82,41.25,14.05
		c-4.54,2.67-9.68,4.93-14.82,7.2c-10.18-0.19-19.4-2.2-25.45-12.2C200.54,791.18,196.93,784.73,199.83,776.81z"/>
	<path class="st45" d="M398.3,687.91c-3.05-6.33-4.04-14.23-8.55-19.18c-9.17-10.08-21.74-12.29-36.05-6.98
		c1.34-1.71,3.07-4.69,5.31-5.17c13.8-2.94,26.12-0.99,35.46,10.05C398.44,671.32,401.29,683.14,398.3,687.91z"/>
	<path class="st45" d="M339.32,687.51c4.21,7.6,7.78,15.68,16.9,19.25c8.67,3.4,17.52,6.25,27.53,1.54c-2.41,6.18-9,5.32-14.06,5.94
		c-14.95,1.85-29.96-10-31.71-24.19C337.88,689.34,338.53,688.54,339.32,687.51z"/>
	<path class="st45" d="M250.06,717.72c1.72-0.4,4.19-1.03,5.2-0.15c9.1,7.91,19.77,8.49,31.82,5.76c0.57-0.12,0.56-0.12,0.56-0.12
		c-0.56,0.73-1.13,1.46-1.86,2.5c-5.1,6.62-11.86,3.7-16.9,2.28C262.17,726.08,256.33,721.57,250.06,717.72z"/>
	<path class="st45" d="M287.45,877.22c1.21,6.58-4.71,17.4-11.27,19.76c-6.97,2.51-14.08,4.72-21.26,6.58
		c-1.87,0.48-4.2-0.83-6.64-1.71c-0.32-0.4-0.25-0.52,0.3-0.61c7.24-1.3,13.93-2.51,20.65-3.81c0.03-0.09-0.13-0.18,0.42-0.21
		c1.22-0.75,1.89-1.47,3.02-2.37c4.75-5.94,9.03-11.69,13.6-17.5c0.29-0.06,0.82-0.31,0.9-0.27S287.45,877.22,287.45,877.22z"/>
	<path class="st45" d="M230.85,810.82c4.8-2.56,9.94-4.82,15.1-7.62c0.02-0.54-0.09-0.58,0.26-0.71c0.82-0.45,1.28-0.76,1.75-1.08
		c8.4-3.26,7.9-11.64,11.83-18.29c0.82-0.86,1.31-1.08,1.8-1.31c1.21,11.82-8.07,24.09-21.05,27.61
		C237.49,810.25,234.31,810.57,230.85,810.82z"/>
	<path class="st45" d="M217.3,755.78c-3.09,1.7-6.18,3.39-9.79,5.22c4.96-10.14,24.01-14.39,35.62-8.8
		c4.53,2.18,8.19,5.96,12.27,9.69c-1.16,0.29-2.42,0.04-3.52-0.5c-2.84-1.41-5.61-2.95-8.41-4.44c0,0,0.03-0.02-0.13-0.45
		C236.07,750.29,225.55,750.18,217.3,755.78z"/>
	<path class="st45" d="M225.15,874.99c-0.65-0.54-1.74-0.99-1.87-1.64c-1.71-8.18,3.89-26.27,17.51-28.15
		c-0.21,1.03-0.9,1.82-2.03,2.85c-6.34,5.02-11.98,9.95-11.61,18.48c-0.02,0.3,0.05,0.9-0.26,1.11c-0.36,0.64-0.4,1.06-0.41,1.8
		c0.04,0.32,0.08,0.97-0.29,1.22C225.59,872.27,225.37,873.63,225.15,874.99z"/>
	<path class="st45" d="M243.76,757.29c2.51,1.13,5.27,2.68,8.12,4.09c1.1,0.55,2.36,0.79,3.71,0.9c2.03,5.97,3.9,12.22,5.88,19
		c-0.37,0.76-0.86,0.98-1.72,1.38C257.35,772.68,253.25,763.71,243.76,757.29z"/>
	<path class="st45" d="M498.87,833.76c5.03,0.07,10.13,0.69,15.09,0.05c4.88-0.63,9.61-2.53,14.99-4
		c-3.59,6.65-10.92,7.01-17.72,8.38c-1.55,0.31-3.19,0.11-5.5-0.49c-2.5-0.91-4.29-1.18-6.07-1.45c0,0-0.09,0.07-0.24-0.38
		C499.13,834.87,499,834.32,498.87,833.76z"/>
	<path class="st45" d="M455.01,949.72c3.08,4.11,6.41,8.69,9.49,13.41c1.04,1.59,1.44,3.57,2.62,5.62
		c-0.94,4.2-2.36,8.16-4.19,12.32C464.9,969.76,461.81,959.57,455.01,949.72z"/>
	<path class="st45" d="M254.36,839.82c10.6-1.64,19.53,1.1,26.32,8.89c1.6,1.84,2.48,4.27,3.76,7.03c0.07,0.6-0.06,0.74-0.41,0.44
		c-5.7-4.34-11.04-8.38-16.75-12.69c-4.3-0.72-8.24-1.16-12.26-1.96C254.74,840.72,254.55,840.27,254.36,839.82z"/>
	<path class="st45" d="M253.76,839.99c0.79,0.28,0.98,0.73,1.32,2.05c0.3,1.56,0.46,2.23,0.04,3.06c-2.86,0.71-5.15,1.28-7.84,1.66
		c-2.96,0.23-5.52,0.64-8.09,1.06c0.69-0.8,1.38-1.59,2.16-2.77C245.35,843.17,249.26,841.67,253.76,839.99z"/>
	<path class="st45" d="M199.92,776.35c-2.99,8.38,0.62,14.83,4.78,21.7c-1.47-1.15-4.01-2.44-4.94-4.43
		c-3.74-8.06-4.92-16.38,0.43-24.95C200.44,770.95,200.22,773.42,199.92,776.35z"/>
	<path class="st45" d="M284.57,856.26c7.47,7.66,8.57,13.76,3.34,20.77c-0.47,0.18-0.64,0.09-0.75-0.46
		c-1-7.07-1.89-13.58-2.79-20.1C284.38,856.48,284.51,856.34,284.57,856.26z"/>
	<path class="st45" d="M480.34,804.83c2.16,6.12,3.89,12.52,5.92,19.92c0.35,1.71,0.41,2.41,0.46,3.11
		C479.96,821.61,477.92,813.96,480.34,804.83z"/>
	<path class="st45" d="M225.32,875.51c0.05-1.88,0.27-3.25,1.07-4.28c3.19,6.51,5.8,12.7,8.39,19.04c-0.01,0.15-0.2,0.73-0.72,0.73
		c-2.86-3.2-5.2-6.4-7.54-9.6C226.18,879.61,225.83,877.82,225.32,875.51z"/>
	<path class="st45" d="M486.76,827.83c-0.1-0.66-0.16-1.36-0.28-2.59c3.81,1.83,7.69,4.18,11.43,7.03
		c-0.37,0.57-0.59,0.64-1.32,0.84c-1.18,0.36-1.84,0.58-2.51,0.81c-0.87-0.44-1.74-0.88-2.94-2.02c-0.99-1.16-1.64-1.63-2.3-2.09
		c0,0,0.12-0.03,0.01-0.39c-0.77-0.82-1.43-1.27-2.09-1.73C486.77,827.69,486.81,827.79,486.76,827.83z"/>
	<path class="st45" d="M226.08,881.6c2.77,2.99,5.11,6.19,7.74,9.83c0.53,1.01,0.77,1.58,0.92,2.31c-0.09,0.16-0.28,0.49-0.28,0.49
		C229.37,891.52,225.06,888.28,226.08,881.6z"/>
	<path class="st45" d="M247.93,901.51c-6.06,0.88-10.18-1.74-13.33-6.81c-0.13-0.46,0.06-0.79,0.4-0.96s0.84-0.14,1.01,0.17
		c0.61,0.51,1.05,0.7,1.49,0.88c0-0.01-0.02,0,0.22,0.37c3.6,2.3,6.96,4.23,10.31,6.17C248.03,901.33,247.97,901.45,247.93,901.51z"
		/>
	<path class="st45" d="M494.36,834.25c0.39-0.56,1.06-0.78,2.47-0.9c1.12,0.37,1.55,0.49,2.04,0.46c0,0-0.02,0-0.01-0.02
		c0.15,0.53,0.28,1.08,0.54,2.04C497.89,835.69,496.26,835.14,494.36,834.25z"/>
	<path class="st45" d="M292.1,918.33c-0.15,1.68-0.7,3.54-1.62,5.67C290.64,922.34,291.16,920.43,292.1,918.33z"/>
	<path class="st45" d="M499.97,836.55c1.47-0.02,3.25,0.25,5.29,0.91C503.77,837.52,502.03,837.18,499.97,836.55z"/>
	<path class="st45" d="M486.89,828.08c0.54,0.06,1.2,0.52,1.95,1.39C488.3,829.42,487.66,828.94,486.89,828.08z"/>
	<path class="st45" d="M489,830.19c0.5,0.09,1.15,0.55,1.93,1.42C490.42,831.53,489.79,831.04,489,830.19z"/>
	<path class="st45" d="M442.14,938.15c5.44-1.78,6.55,2.63,8.7,6.35C448.08,942.85,445.23,940.69,442.14,938.15z"/>
	<path class="st45" d="M416.42,928.8c3.21,0.24,6.77,0.79,10.49,1.79C423.64,930.39,420.2,929.74,416.42,928.8z"/>
	<path class="st45" d="M438.8,936.27c0.79,0.03,1.79,0.38,2.95,1.12C440.94,937.39,439.98,936.99,438.8,936.27z"/>
	<path class="st45" d="M452.54,946.43c0.58,0.12,1.27,0.69,2.05,1.73C454,948.04,453.32,947.45,452.54,946.43z"/>
	<path class="st45" d="M431.66,932.82c0.24-0.17,0.77-0.09,1.57,0.3C432.98,933.31,432.47,933.19,431.66,932.82z"/>
	<path class="st45" d="M436.15,934.45c0.31-0.18,0.94-0.04,1.81,0.51C437.62,935.17,437.04,934.97,436.15,934.45z"/>
	<path class="st45" d="M451.04,945.28c0.28-0.17,0.73-0.02,1.35,0.43C452.12,945.87,451.66,945.73,451.04,945.28z"/>
	<path class="st45" d="M287.66,723.22c0.1-0.09,0.19-0.19,0.13-0.15C287.64,723.21,287.65,723.21,287.66,723.22z"/>
	<path class="st45" d="M498.78,833.5c-0.4,0.35-0.83,0.23-1.45-0.29c-0.01-0.3,0.22-0.37,0.77-0.53
		C498.44,832.58,498.69,833.18,498.78,833.5z"/>
	<path class="st45" d="M217.88,755.64c7.67-5.46,18.18-5.34,25.46,0.87C235.27,755.21,227.19,751.88,217.88,755.64z"/>
	<path class="st45" d="M247.87,801.17c-0.38,0.56-0.84,0.88-1.69,1.38C246.46,802.13,247.12,801.53,247.87,801.17z"/>
	<path class="st36" d="M234.79,890.12c-2.61-6.19-5.22-12.37-8.04-19.13c-0.2-0.57-0.24-1.22-0.05-1.78
		c0.43-0.93,0.54-1.34,0.49-1.78c0,0-0.06-0.6,0.37-1.09c4.13-9.51,11.53-15.01,20.12-19.38c2.29-0.57,4.58-1.13,7.45-1.87
		c0.57-0.17,0.56-0.15,0.93,0.12c4.16,0.9,7.94,1.54,11.93,2.57c11.49,7.09,17.91,16.55,18.01,29.63
		c-4.28,5.75-8.57,11.5-13.81,17.56c-1.66,0.97-2.37,1.62-3.08,2.28c0,0,0.16,0.09-0.38-0.13c-3.67,0.3-6.8,0.82-10.19,0.95
		c-4.15-0.84-8.05-1.28-11.96-1.7c-0.01,0.03,0.02-0.03-0.18-0.43c-1.64-0.63-3.07-0.86-4.52-1.04c-0.02,0.04,0.04-0.03-0.1-0.48
		C239.36,892.69,237.07,891.41,234.79,890.12z"/>
	<path class="st45" d="M286.28,877.36c-0.39-13.02-6.81-22.49-18.39-30.05c-0.46-1.48-0.63-2.08-0.66-2.9
		c0.15-0.21,0.41-0.65,0.41-0.65c5.35,4.04,10.69,8.07,16.39,12.41c1.25,6.82,2.14,13.34,3.05,20.36
		C287.1,877.04,286.57,877.3,286.28,877.36z"/>
	<path class="st45" d="M258.8,898.48c3.13-0.52,6.26-1.04,9.89-1.26c-6.18,1.51-12.87,2.72-20.11,4.02
		c-3.91-1.84-7.26-3.78-10.42-6.17c1.39-0.37,2.58-0.28,3.76-0.19c0,0-0.06,0.08,0.23,0.37c1.68,0.57,3.07,0.83,4.46,1.1
		c0,0-0.04,0.05,0.16,0.47C250.91,897.65,254.86,898.06,258.8,898.48z"/>
	<path class="st45" d="M247.28,846.76c-8.19,4.57-15.59,10.07-19.7,19.28c-0.8-8.04,7.42-12.33,11.18-17.99
		C241.76,847.41,244.32,846.99,247.28,846.76z"/>
	<path class="st45" d="M226.88,867.65c0.36,0.22,0.25,0.63-0.22,1.24C226.48,868.7,226.53,868.28,226.88,867.65z"/>
	<path class="st45" d="M255.7,844.94c-0.15-0.66-0.31-1.34-0.53-2.53c3.87-0.08,7.81,0.36,12.11,1.08c0.36,0.28,0.1,0.71-0.55,0.99
		c-4.12,0.34-7.58,0.4-11.04,0.47C255.68,844.94,255.7,844.92,255.7,844.94z"/>
	<path class="st45" d="M241.78,894.43c-1.04,0.36-2.23,0.27-3.86,0.27c-0.44,0.09-0.42,0.08-0.51-0.2c-0.58-0.48-1.08-0.7-1.58-0.91
		c0,0-0.5-0.03-0.74-0.02c-0.49-0.57-0.73-1.14-0.75-2.14c0.23-0.43,0.42-1.01,0.43-1.16C237.07,891.41,239.36,892.69,241.78,894.43
		z"/>
	<path class="st45" d="M236.01,893.92c0.33-0.1,0.82,0.11,1.4,0.6C237.05,894.61,236.62,894.42,236.01,893.92z"/>
	<path class="st45" d="M256.05,845.21c3.09-0.33,6.55-0.4,10.53-0.52c0.68,0.54,0.85,1.15,1.11,2.23
		C263.99,846.75,260.21,846.11,256.05,845.21z"/>
	<path class="st45" d="M258.55,898.09c-3.69-0.02-7.63-0.43-11.76-1.29C250.5,896.8,254.39,897.25,258.55,898.09z"/>
	<path class="st45" d="M246.41,895.96c-1.19,0.13-2.58-0.14-4.24-0.74C243.34,895.1,244.77,895.33,246.41,895.96z"/>
</g>
<g>
	<path d="M741.01,673.41c-12.23,10.6-26.26,16.12-40.88,20.02c-20,5.33-40.46,7.83-60.74,11.36c-17.19,2.99-34.5,4.83-51.91,4.69
		c-10.29-0.08-20.59-0.93-30.41-4.78c-7.67-3.01-14.16-7.54-16.3-17.03c-0.12-0.52-0.3-1.03-0.38-1.56
		c-1.44-9.48,0.53-11.64,8.84-9.32c9.77,2.72,19.68,4.52,29.73,4.74c19.24,0.42,36.47-6.98,52.84-17.36
		c17.75-11.25,34.73-23.85,52.06-35.83c11.92-8.24,24.79-12.96,38.85-12.85c10.69,0.08,21.01,2.3,29.35,10.59
		c1.58,1.57,2.65,1.1,4.07-0.25c9.67-9.18,21.27-10.78,33.43-10.12c15.11,0.82,27.94,7.97,40.38,16.76
		c17.11,12.09,34.08,24.44,51.93,35.27c23.9,14.51,48.86,17.09,74.98,9.42c1.89-0.56,3.81-1.02,5.73-1.42
		c3.32-0.7,4.71,0.55,4.97,4.35c0.7,10.35-3.45,18-12.34,22.63c-7.42,3.87-15.37,5.38-23.46,6.09c-24.11,2.11-47.9-1.31-71.62-5.43
		c-15.33-2.67-30.76-4.69-45.95-8.29c-14.91-3.53-29.42-8.33-42.34-17.68c-3.6-2.6-6.94-5.54-9.95-8.93
		c-3.01-3.4-5.32-7.37-7.92-11.89C750.23,662.88,746.56,668.87,741.01,673.41z"/>
</g>
<ellipse transform="matrix(0.2775 -0.9607 0.9607 0.2775 -614.3874 1033.4031)" class="st47" cx="379.91" cy="925.2" rx="36.5" ry="48.5"/>
<path class="st47" d="M334.04,927.12c0-16.29,20.37-29.5,45.5-29.5c25.13,0,45.5,13.21,45.5,29.5s-10.75,35.53-35.88,35.53
	C364.03,962.65,334.04,943.41,334.04,927.12z"/>
<ellipse class="st53" cx="478.91" cy="780.36" rx="41.33" ry="41.07"/>
<ellipse class="st54" cx="256.05" cy="843.12" rx="40.82" ry="41.06"/>
<ellipse class="st55" cx="257.23" cy="734.29" rx="42" ry="44"/>
<ellipse class="st56" cx="316.61" cy="930.38" rx="42" ry="41"/>
<ellipse class="st57" cx="379.54" cy="695.29" rx="44.5" ry="46"/>
</svg>
