<?xml version="1.0" encoding="UTF-8"?>
<svg width="65px" height="57px" viewBox="0 0 65 57" version="1.1" xmlns="http://www.w3.org/2000/svg" xmlns:xlink="http://www.w3.org/1999/xlink">
    <title>THT_Fullcolour_Brand</title>
    <g id="THT_Fullcolour_Brand" stroke="none" stroke-width="1" fill="none" fill-rule="evenodd">
        <g id="Group-5-Copy-2" transform="translate(0.510600, 0.000000)">
            <path d="M14.591439,9.41855714 C14.4985061,9.13248293 14.3395553,8.88489917 14.1147136,8.67593289 C13.9590637,8.55563436 13.8034138,8.43533584 13.6478908,8.31503732 C13.2880932,8.10632509 12.9001111,8.00127031 12.4838174,8 C12.2794159,8.02743873 12.0750143,8.0550045 11.8707396,8.0823162 C11.4799644,8.19207114 11.140734,8.38985868 10.8529213,8.67593289 L10.6684521,8.86050918 C10.4436103,9.06947547 10.2845326,9.31705923 10.1914727,9.60326047 C10.047249,9.87815593 9.9808502,10.1746467 9.99291116,10.4923517 C9.9808502,10.8100566 10.047249,11.1064204 10.1914727,11.3814429 C10.2845326,11.6675171 10.4436103,11.9151008 10.6684521,12.1240671 C10.824102,12.2443656 10.9796249,12.3646642 11.1352748,12.4849627 C11.4949454,12.6936749 11.8830545,12.7987297 12.2993482,12.8 C12.5036228,12.7725613 12.7080244,12.7449955 12.912426,12.7175568 C13.3030742,12.6079289 13.6423047,12.4101413 13.9301174,12.1240671 C13.9916918,12.062584 14.0531392,12.0011009 14.1147136,11.9394908 C14.3395553,11.7305245 14.4985061,11.4828137 14.591439,11.1967395 C14.7359167,10.921717 14.8021885,10.6253533 14.7901275,10.3076483 C14.8021885,9.98994337 14.7359167,9.69357963 14.591439,9.41855714" id="Fill-31" fill="#155E35"></path>
            <path d="M56.191439,9.41855714 C56.0985061,9.13248293 55.9395553,8.88489917 55.7147136,8.67593289 C55.5590637,8.55563436 55.4034138,8.43533584 55.2478908,8.31503732 C54.8880932,8.10632509 54.5001111,8.00127031 54.0838174,8 C53.8794159,8.02743873 53.6750143,8.0550045 53.4707396,8.0823162 C53.0799644,8.19207114 52.740734,8.38985868 52.4529213,8.67593289 L52.2684521,8.86050918 C52.0436103,9.06947547 51.8845326,9.31705923 51.7914727,9.60326047 C51.647249,9.87815593 51.5808502,10.1746467 51.5929112,10.4923517 C51.5808502,10.8100566 51.647249,11.1064204 51.7914727,11.3814429 C51.8845326,11.6675171 52.0436103,11.9151008 52.2684521,12.1240671 C52.424102,12.2443656 52.5796249,12.3646642 52.7352748,12.4849627 C53.0949454,12.6936749 53.4830545,12.7987297 53.8993482,12.8 C54.1036228,12.7725613 54.3080244,12.7449955 54.512426,12.7175568 C54.9030742,12.6079289 55.2423047,12.4101413 55.5301174,12.1240671 C55.5916918,12.062584 55.6531392,12.0011009 55.7147136,11.9394908 C55.9395553,11.7305245 56.0985061,11.4828137 56.191439,11.1967395 C56.3359167,10.921717 56.4021885,10.6253533 56.3901275,10.3076483 C56.4021885,9.98994337 56.3359167,9.69357963 56.191439,9.41855714" id="Fill-31-Copy" fill="#155E35"></path>
            <path d="M53.5915203,0 C59.1143678,0 63.5915203,4.4771525 63.5915203,10 C63.5915203,12.6606346 62.5524469,15.0785806 60.8579587,16.8701792 C61.6604322,18.6052113 62.27908,20.4646603 62.697945,22.4341916 C65.7691841,38.9591956 54.4399237,52.2648297 37.2058678,55.926046 C19.9718119,59.5872622 3.44307826,50.5284527 0.287907849,35.6926286 C-0.752467896,30.5853328 1.06557443,23.5869243 5.11307171,17.2581571 C3.19048382,15.4360047 1.99152035,12.8580188 1.99152035,10 C1.99152035,4.4771525 6.46867285,0 11.9915203,0 C15.2948477,0 18.2240799,1.60169204 20.0449662,4.07082551 C21.8576827,3.26293309 23.7727895,2.62718444 25.779985,2.20077426 C33.3718921,0.94330152 40.2218928,1.51421263 45.929233,3.57509529 C47.7625417,1.38951287 50.514762,0 53.5915203,0 Z M26.8246772,5.33297827 C24.9773213,5.72543201 23.217894,6.31776727 21.5555395,7.07275426 C21.8393015,7.99885633 21.9915203,8.98165186 21.9915203,10 C21.9915203,15.5228475 17.5143678,20 11.9915203,20 C10.630374,20 9.33274443,19.7280523 8.150001,19.2355262 C4.79812728,24.7032991 3.31602888,30.6600992 4.20932213,35.0453541 C7.00843884,48.2069898 21.6719431,56.2435335 36.9611755,52.995477 C52.2504079,49.7474206 62.3011875,37.9432966 59.5765306,23.2831012 C59.2478906,21.7378139 58.7806222,20.2689124 58.1841373,18.8843445 C56.8090033,19.5976009 55.2472545,20 53.5915203,20 C48.0686728,20 43.5915203,15.5228475 43.5915203,10 C43.5915203,8.73025841 43.8281703,7.51578938 44.2597703,6.39829286 C39.287119,4.69612957 33.366352,4.24945899 26.8246772,5.33297827 Z" id="Combined-Shape" fill="#7CA39B"></path>
            <path d="M56.191439,9.41855714 C56.0985061,9.13248293 55.9395553,8.88489917 55.7147136,8.67593289 C55.5590637,8.55563436 55.4034138,8.43533584 55.2478908,8.31503732 C54.8880932,8.10632509 54.5001111,8.00127031 54.0838174,8 C53.8794159,8.02743873 53.6750143,8.0550045 53.4707396,8.0823162 C53.0799644,8.19207114 52.740734,8.38985868 52.4529213,8.67593289 L52.2684521,8.86050918 C52.0436103,9.06947547 51.8845326,9.31705923 51.7914727,9.60326047 C51.647249,9.87815593 51.5808502,10.1746467 51.5929112,10.4923517 C51.5808502,10.8100566 51.647249,11.1064204 51.7914727,11.3814429 C51.8845326,11.6675171 52.0436103,11.9151008 52.2684521,12.1240671 C52.424102,12.2443656 52.5796249,12.3646642 52.7352748,12.4849627 C53.0949454,12.6936749 53.4830545,12.7987297 53.8993482,12.8 C54.1036228,12.7725613 54.3080244,12.7449955 54.512426,12.7175568 C54.9030742,12.6079289 55.2423047,12.4101413 55.5301174,12.1240671 C55.5916918,12.062584 55.6531392,12.0011009 55.7147136,11.9394908 C55.9395553,11.7305245 56.0985061,11.4828137 56.191439,11.1967395 C56.3359167,10.921717 56.4021885,10.6253533 56.3901275,10.3076483 C56.4021885,9.98994337 56.3359167,9.69357963 56.191439,9.41855714" id="Fill-31-Copy-4" fill="#155E35"></path>
            <path d="M14.591439,9.41855714 C14.4985061,9.13248293 14.3395553,8.88489917 14.1147136,8.67593289 C13.9590637,8.55563436 13.8034138,8.43533584 13.6478908,8.31503732 C13.2880932,8.10632509 12.9001111,8.00127031 12.4838174,8 C12.2794159,8.02743873 12.0750143,8.0550045 11.8707396,8.0823162 C11.4799644,8.19207114 11.140734,8.38985868 10.8529213,8.67593289 L10.6684521,8.86050918 C10.4436103,9.06947547 10.2845326,9.31705923 10.1914727,9.60326047 C10.047249,9.87815593 9.9808502,10.1746467 9.99291116,10.4923517 C9.9808502,10.8100566 10.047249,11.1064204 10.1914727,11.3814429 C10.2845326,11.6675171 10.4436103,11.9151008 10.6684521,12.1240671 C10.824102,12.2443656 10.9796249,12.3646642 11.1352748,12.4849627 C11.4949454,12.6936749 11.8830545,12.7987297 12.2993482,12.8 C12.5036228,12.7725613 12.7080244,12.7449955 12.912426,12.7175568 C13.3030742,12.6079289 13.6423047,12.4101413 13.9301174,12.1240671 C13.9916918,12.062584 14.0531392,12.0011009 14.1147136,11.9394908 C14.3395553,11.7305245 14.4985061,11.4828137 14.591439,11.1967395 C14.7359167,10.921717 14.8021885,10.6253533 14.7901275,10.3076483 C14.8021885,9.98994337 14.7359167,9.69357963 14.591439,9.41855714" id="Fill-31-Copy-4" fill="#155E35"></path>
            <path d="M14.3915203,1.6 C20.7980234,1.6 25.9915203,6.7934969 25.9915203,13.2 C25.9915203,19.6065031 20.7980234,24.8 14.3915203,24.8 C7.98501725,24.8 2.79152035,19.6065031 2.79152035,13.2 C2.79152035,6.7934969 7.98501725,1.6 14.3915203,1.6 Z M14.3915203,4.384 C9.52257799,4.384 5.57552035,8.33105765 5.57552035,13.2 C5.57552035,18.0689424 9.52257799,22.016 14.3915203,22.016 C19.2604627,22.016 23.2075203,18.0689424 23.2075203,13.2 C23.2075203,8.33105765 19.2604627,4.384 14.3915203,4.384 Z" id="Combined-Shape" fill="#346B60"></path>
            <g id="Group" transform="translate(31.827251, 29.704318) rotate(-10.000000) translate(-31.827251, -29.704318) translate(6.827251, 22.704318)" fill="#346B60" fill-rule="nonzero">
                <path d="M49.1358169,9.33800124 C49.4045214,8.91581145 49.8344487,8.01695579 49.8344487,7.14533817 C49.8344487,6.27372055 49.6463555,5.12972243 48.9208532,4.39429506 C48.3834442,3.86315308 47.3489317,3.34563012 46.2875488,3.64524867 C44.8096738,4.05381943 44.0035602,5.14334145 44.0035602,5.14334145 C44.0035602,5.14334145 46.180067,4.47600921 46.9055692,4.85734192 C47.7251181,5.26591268 48.1147396,6.38267275 48.0475635,6.91381474 C47.9266465,7.96247969 47.5773306,8.75238315 46.0591499,9.22904904 C44.164783,9.82828615 42.2435455,8.80685925 40.1342149,7.4858138 C38.3742002,6.38267275 34.2630208,1.83391831 29.950313,0.649063113 C28.0962517,0.131540152 24.2000359,1.08487192 25.1942427,5.12972243 C26.0675324,8.65704997 32.5836174,11.4761882 35.9827298,12.5929483 C40.5775774,14.1046601 46.3144192,13.3147566 48.9208532,9.70571492 C48.9208532,9.70571492 48.9745941,9.63761979 49.0552055,9.50142954 C49.0686407,9.44695344 49.0955112,9.39247734 49.1358169,9.33800124 Z" id="Path"></path>
                <path d="M1.40310167,9.10967599 C1.13439714,8.6874862 0.70446988,7.78863053 0.70446988,6.91701292 C0.70446988,6.0453953 0.892563055,4.90139718 1.6180653,4.16596981 C2.15547437,3.63482783 3.18998684,3.11730487 4.25136976,3.41692342 C5.72924471,3.82549418 6.53535831,4.9150162 6.53535831,4.9150162 C6.53535831,4.9150162 4.35885157,4.24768396 3.63334932,4.62901667 C2.81380049,5.03758743 2.42417891,6.1543475 2.49135504,6.68548949 C2.61227209,7.73415443 2.96158798,8.5240579 4.47976861,9.00072378 C6.37413559,9.5999609 8.29537302,8.578534 10.4047036,7.25748855 C12.1647183,6.1543475 16.2758977,1.60559306 20.5886056,0.420737861 C22.4426669,-0.0967850997 26.3388826,0.85654667 25.3446758,4.90139718 C24.4713861,8.42872472 17.9553011,11.247863 14.5561887,12.364623 C9.96134115,13.8763348 4.2244993,13.0864314 1.6180653,9.47738967 C1.6180653,9.47738967 1.5643244,9.40929454 1.48371303,9.27310429 C1.47027781,9.21862819 1.42997213,9.16415209 1.40310167,9.10967599 Z" id="Path"></path>
            </g>
        </g>
    </g>
</svg>